%TF.GenerationSoftware,KiCad,Pcbnew,8.0.3*%
%TF.CreationDate,2024-12-09T22:45:42-06:00*%
%TF.ProjectId,M4_CAN_Feather_Carrier,4d345f43-414e-45f4-9665-61746865725f,6*%
%TF.SameCoordinates,Original*%
%TF.FileFunction,Soldermask,Bot*%
%TF.FilePolarity,Negative*%
%FSLAX46Y46*%
G04 Gerber Fmt 4.6, Leading zero omitted, Abs format (unit mm)*
G04 Created by KiCad (PCBNEW 8.0.3) date 2024-12-09 22:45:42*
%MOMM*%
%LPD*%
G01*
G04 APERTURE LIST*
%ADD10C,3.800000*%
%ADD11C,1.700000*%
%ADD12R,1.700000X1.700000*%
%ADD13O,1.700000X1.700000*%
%ADD14C,0.900000*%
%ADD15R,1.800000X1.800000*%
%ADD16C,2.000000*%
G04 APERTURE END LIST*
D10*
%TO.C,H2*%
X0Y-73500000D03*
%TD*%
%TO.C,H1*%
X0Y0D03*
%TD*%
%TO.C,H4*%
X64500000Y0D03*
%TD*%
D11*
%TO.C,J3*%
X7787000Y-21132300D03*
X5247000Y-21132300D03*
X2707000Y-21132300D03*
X7787000Y-23672300D03*
X5247000Y-23672300D03*
X2707000Y-23672300D03*
X7787000Y-26212300D03*
X5247000Y-26212300D03*
X2707000Y-26212300D03*
X7787000Y-28752300D03*
X5247000Y-28752300D03*
X2707000Y-28752300D03*
%TD*%
D12*
%TO.C,J5*%
X7708500Y-17850300D03*
D13*
X5168500Y-17850300D03*
X2628500Y-17850300D03*
%TD*%
D11*
%TO.C,J7*%
X5115714Y-67830000D03*
X5115714Y-70370000D03*
X5115714Y-72910000D03*
X7655714Y-67830000D03*
X7655714Y-70370000D03*
X7655714Y-72910000D03*
X10195714Y-67830000D03*
X10195714Y-70370000D03*
X10195714Y-72910000D03*
X12735714Y-67830000D03*
X12735714Y-70370000D03*
X12735714Y-72910000D03*
%TD*%
D14*
%TO.C,S2*%
X36120000Y-74100000D03*
X39120000Y-74100000D03*
%TD*%
%TO.C,S1*%
X55480000Y-74100000D03*
X58480000Y-74100000D03*
%TD*%
D12*
%TO.C,J6*%
X41915000Y-41275000D03*
D13*
X39375000Y-41275000D03*
%TD*%
D10*
%TO.C,H3*%
X64500000Y-73500000D03*
%TD*%
D12*
%TO.C,J4*%
X5247000Y-41300000D03*
D13*
X2707000Y-41300000D03*
X5247000Y-38760000D03*
X2707000Y-38760000D03*
X5247000Y-36220000D03*
X2707000Y-36220000D03*
X5247000Y-33680000D03*
X2707000Y-33680000D03*
%TD*%
D11*
%TO.C,U2*%
X24270000Y-65705000D03*
X26780000Y-65705000D03*
X29320000Y-65705000D03*
X31860000Y-65705000D03*
X34400000Y-65705000D03*
X36940000Y-65705000D03*
X39480000Y-65705000D03*
X42020000Y-65705000D03*
X44560000Y-65705000D03*
X47100000Y-65705000D03*
X49640000Y-65705000D03*
X52180000Y-65705000D03*
X54720000Y-65705000D03*
X57260000Y-65705000D03*
X59800000Y-65705000D03*
X62340000Y-65705000D03*
X62340000Y-45385000D03*
X59800000Y-45385000D03*
X57260000Y-45385000D03*
X54720000Y-45385000D03*
X52180000Y-45385000D03*
X49640000Y-45385000D03*
X47100000Y-45385000D03*
X44560000Y-45385000D03*
X42020000Y-45385000D03*
X39480000Y-45385000D03*
X36940000Y-45385000D03*
X34400000Y-45385000D03*
%TD*%
%TO.C,U6*%
X24270000Y-37325000D03*
X26780000Y-37325000D03*
X29320000Y-37325000D03*
X31860000Y-37325000D03*
X34400000Y-37325000D03*
X36940000Y-37325000D03*
X39480000Y-37325000D03*
X42020000Y-37325000D03*
X44560000Y-37325000D03*
X47100000Y-37325000D03*
X49640000Y-37325000D03*
X52180000Y-37325000D03*
X54720000Y-37325000D03*
X57260000Y-37325000D03*
X59800000Y-37325000D03*
X62340000Y-37325000D03*
X62340000Y-17005000D03*
X59800000Y-17005000D03*
X57260000Y-17005000D03*
X54720000Y-17005000D03*
X52180000Y-17005000D03*
X49640000Y-17005000D03*
X47100000Y-17005000D03*
X44560000Y-17005000D03*
X42020000Y-17005000D03*
X39480000Y-17005000D03*
X36940000Y-17005000D03*
X34400000Y-17005000D03*
%TD*%
D15*
%TO.C,J1*%
X6450000Y-4250000D03*
D16*
X6450000Y-9250000D03*
X9950000Y-4250000D03*
X9950000Y-9250000D03*
%TD*%
D15*
%TO.C,J2*%
X51300000Y-4400000D03*
D16*
X51300000Y-9400000D03*
X54800000Y-4400000D03*
X54800000Y-9400000D03*
X58300000Y-4400000D03*
X58300000Y-9400000D03*
%TD*%
M02*
