%TF.GenerationSoftware,KiCad,Pcbnew,8.0.3*%
%TF.CreationDate,2024-12-09T22:45:46-06:00*%
%TF.ProjectId,M4_CAN_Feather_Carrier,4d345f43-414e-45f4-9665-61746865725f,6*%
%TF.SameCoordinates,Original*%
%TF.FileFunction,Drillmap*%
%TF.FilePolarity,Positive*%
%FSLAX45Y45*%
G04 Gerber Fmt 4.5, Leading zero omitted, Abs format (unit mm)*
G04 Created by KiCad (PCBNEW 8.0.3) date 2024-12-09 22:45:46*
%MOMM*%
%LPD*%
G01*
G04 APERTURE LIST*
%ADD10C,0.100000*%
%ADD11C,0.200000*%
G04 APERTURE END LIST*
D10*
X-300000Y300000D02*
X6750000Y300000D01*
X6750000Y-7650000D01*
X-300000Y-7650000D01*
X-300000Y300000D01*
D11*
D10*
X3567000Y-7365000D02*
X3657000Y-7455000D01*
X3657000Y-7365000D02*
X3567000Y-7455000D01*
X3867000Y-7365000D02*
X3957000Y-7455000D01*
X3957000Y-7365000D02*
X3867000Y-7455000D01*
X5503000Y-7365000D02*
X5593000Y-7455000D01*
X5593000Y-7365000D02*
X5503000Y-7455000D01*
X5803000Y-7365000D02*
X5893000Y-7455000D01*
X5893000Y-7365000D02*
X5803000Y-7455000D01*
D11*
X-44223Y-7966484D02*
X-44223Y-7766484D01*
X-44223Y-7766484D02*
X3396Y-7766484D01*
X3396Y-7766484D02*
X31967Y-7776008D01*
X31967Y-7776008D02*
X51015Y-7795055D01*
X51015Y-7795055D02*
X60539Y-7814103D01*
X60539Y-7814103D02*
X70063Y-7852198D01*
X70063Y-7852198D02*
X70063Y-7880769D01*
X70063Y-7880769D02*
X60539Y-7918865D01*
X60539Y-7918865D02*
X51015Y-7937912D01*
X51015Y-7937912D02*
X31967Y-7956960D01*
X31967Y-7956960D02*
X3396Y-7966484D01*
X3396Y-7966484D02*
X-44223Y-7966484D01*
X155777Y-7966484D02*
X155777Y-7833150D01*
X155777Y-7871246D02*
X165301Y-7852198D01*
X165301Y-7852198D02*
X174824Y-7842674D01*
X174824Y-7842674D02*
X193872Y-7833150D01*
X193872Y-7833150D02*
X212920Y-7833150D01*
X279586Y-7966484D02*
X279586Y-7833150D01*
X279586Y-7766484D02*
X270063Y-7776008D01*
X270063Y-7776008D02*
X279586Y-7785531D01*
X279586Y-7785531D02*
X289110Y-7776008D01*
X289110Y-7776008D02*
X279586Y-7766484D01*
X279586Y-7766484D02*
X279586Y-7785531D01*
X403396Y-7966484D02*
X384348Y-7956960D01*
X384348Y-7956960D02*
X374824Y-7937912D01*
X374824Y-7937912D02*
X374824Y-7766484D01*
X508158Y-7966484D02*
X489110Y-7956960D01*
X489110Y-7956960D02*
X479586Y-7937912D01*
X479586Y-7937912D02*
X479586Y-7766484D01*
X736729Y-7966484D02*
X736729Y-7766484D01*
X736729Y-7766484D02*
X803396Y-7909341D01*
X803396Y-7909341D02*
X870062Y-7766484D01*
X870062Y-7766484D02*
X870062Y-7966484D01*
X1051015Y-7966484D02*
X1051015Y-7861722D01*
X1051015Y-7861722D02*
X1041491Y-7842674D01*
X1041491Y-7842674D02*
X1022443Y-7833150D01*
X1022443Y-7833150D02*
X984348Y-7833150D01*
X984348Y-7833150D02*
X965301Y-7842674D01*
X1051015Y-7956960D02*
X1031967Y-7966484D01*
X1031967Y-7966484D02*
X984348Y-7966484D01*
X984348Y-7966484D02*
X965301Y-7956960D01*
X965301Y-7956960D02*
X955777Y-7937912D01*
X955777Y-7937912D02*
X955777Y-7918865D01*
X955777Y-7918865D02*
X965301Y-7899817D01*
X965301Y-7899817D02*
X984348Y-7890293D01*
X984348Y-7890293D02*
X1031967Y-7890293D01*
X1031967Y-7890293D02*
X1051015Y-7880769D01*
X1146253Y-7833150D02*
X1146253Y-8033150D01*
X1146253Y-7842674D02*
X1165301Y-7833150D01*
X1165301Y-7833150D02*
X1203396Y-7833150D01*
X1203396Y-7833150D02*
X1222444Y-7842674D01*
X1222444Y-7842674D02*
X1231967Y-7852198D01*
X1231967Y-7852198D02*
X1241491Y-7871246D01*
X1241491Y-7871246D02*
X1241491Y-7928388D01*
X1241491Y-7928388D02*
X1231967Y-7947436D01*
X1231967Y-7947436D02*
X1222444Y-7956960D01*
X1222444Y-7956960D02*
X1203396Y-7966484D01*
X1203396Y-7966484D02*
X1165301Y-7966484D01*
X1165301Y-7966484D02*
X1146253Y-7956960D01*
X1327205Y-7947436D02*
X1336729Y-7956960D01*
X1336729Y-7956960D02*
X1327205Y-7966484D01*
X1327205Y-7966484D02*
X1317682Y-7956960D01*
X1317682Y-7956960D02*
X1327205Y-7947436D01*
X1327205Y-7947436D02*
X1327205Y-7966484D01*
X1327205Y-7842674D02*
X1336729Y-7852198D01*
X1336729Y-7852198D02*
X1327205Y-7861722D01*
X1327205Y-7861722D02*
X1317682Y-7852198D01*
X1317682Y-7852198D02*
X1327205Y-7842674D01*
X1327205Y-7842674D02*
X1327205Y-7861722D01*
D10*
X-395000Y-8250000D02*
X-305000Y-8340000D01*
X-305000Y-8250000D02*
X-395000Y-8340000D01*
D11*
X-6128Y-8186484D02*
X12920Y-8186484D01*
X12920Y-8186484D02*
X31967Y-8196008D01*
X31967Y-8196008D02*
X41491Y-8205531D01*
X41491Y-8205531D02*
X51015Y-8224579D01*
X51015Y-8224579D02*
X60539Y-8262674D01*
X60539Y-8262674D02*
X60539Y-8310293D01*
X60539Y-8310293D02*
X51015Y-8348388D01*
X51015Y-8348388D02*
X41491Y-8367436D01*
X41491Y-8367436D02*
X31967Y-8376960D01*
X31967Y-8376960D02*
X12920Y-8386484D01*
X12920Y-8386484D02*
X-6128Y-8386484D01*
X-6128Y-8386484D02*
X-25175Y-8376960D01*
X-25175Y-8376960D02*
X-34699Y-8367436D01*
X-34699Y-8367436D02*
X-44223Y-8348388D01*
X-44223Y-8348388D02*
X-53747Y-8310293D01*
X-53747Y-8310293D02*
X-53747Y-8262674D01*
X-53747Y-8262674D02*
X-44223Y-8224579D01*
X-44223Y-8224579D02*
X-34699Y-8205531D01*
X-34699Y-8205531D02*
X-25175Y-8196008D01*
X-25175Y-8196008D02*
X-6128Y-8186484D01*
X146253Y-8367436D02*
X155777Y-8376960D01*
X155777Y-8376960D02*
X146253Y-8386484D01*
X146253Y-8386484D02*
X136729Y-8376960D01*
X136729Y-8376960D02*
X146253Y-8367436D01*
X146253Y-8367436D02*
X146253Y-8386484D01*
X251015Y-8386484D02*
X289110Y-8386484D01*
X289110Y-8386484D02*
X308158Y-8376960D01*
X308158Y-8376960D02*
X317682Y-8367436D01*
X317682Y-8367436D02*
X336729Y-8338865D01*
X336729Y-8338865D02*
X346253Y-8300769D01*
X346253Y-8300769D02*
X346253Y-8224579D01*
X346253Y-8224579D02*
X336729Y-8205531D01*
X336729Y-8205531D02*
X327205Y-8196008D01*
X327205Y-8196008D02*
X308158Y-8186484D01*
X308158Y-8186484D02*
X270063Y-8186484D01*
X270063Y-8186484D02*
X251015Y-8196008D01*
X251015Y-8196008D02*
X241491Y-8205531D01*
X241491Y-8205531D02*
X231967Y-8224579D01*
X231967Y-8224579D02*
X231967Y-8272198D01*
X231967Y-8272198D02*
X241491Y-8291246D01*
X241491Y-8291246D02*
X251015Y-8300769D01*
X251015Y-8300769D02*
X270063Y-8310293D01*
X270063Y-8310293D02*
X308158Y-8310293D01*
X308158Y-8310293D02*
X327205Y-8300769D01*
X327205Y-8300769D02*
X336729Y-8291246D01*
X336729Y-8291246D02*
X346253Y-8272198D01*
X470062Y-8186484D02*
X489110Y-8186484D01*
X489110Y-8186484D02*
X508158Y-8196008D01*
X508158Y-8196008D02*
X517682Y-8205531D01*
X517682Y-8205531D02*
X527205Y-8224579D01*
X527205Y-8224579D02*
X536729Y-8262674D01*
X536729Y-8262674D02*
X536729Y-8310293D01*
X536729Y-8310293D02*
X527205Y-8348388D01*
X527205Y-8348388D02*
X517682Y-8367436D01*
X517682Y-8367436D02*
X508158Y-8376960D01*
X508158Y-8376960D02*
X489110Y-8386484D01*
X489110Y-8386484D02*
X470062Y-8386484D01*
X470062Y-8386484D02*
X451015Y-8376960D01*
X451015Y-8376960D02*
X441491Y-8367436D01*
X441491Y-8367436D02*
X431967Y-8348388D01*
X431967Y-8348388D02*
X422443Y-8310293D01*
X422443Y-8310293D02*
X422443Y-8262674D01*
X422443Y-8262674D02*
X431967Y-8224579D01*
X431967Y-8224579D02*
X441491Y-8205531D01*
X441491Y-8205531D02*
X451015Y-8196008D01*
X451015Y-8196008D02*
X470062Y-8186484D01*
X660539Y-8186484D02*
X679586Y-8186484D01*
X679586Y-8186484D02*
X698634Y-8196008D01*
X698634Y-8196008D02*
X708158Y-8205531D01*
X708158Y-8205531D02*
X717682Y-8224579D01*
X717682Y-8224579D02*
X727205Y-8262674D01*
X727205Y-8262674D02*
X727205Y-8310293D01*
X727205Y-8310293D02*
X717682Y-8348388D01*
X717682Y-8348388D02*
X708158Y-8367436D01*
X708158Y-8367436D02*
X698634Y-8376960D01*
X698634Y-8376960D02*
X679586Y-8386484D01*
X679586Y-8386484D02*
X660539Y-8386484D01*
X660539Y-8386484D02*
X641491Y-8376960D01*
X641491Y-8376960D02*
X631967Y-8367436D01*
X631967Y-8367436D02*
X622444Y-8348388D01*
X622444Y-8348388D02*
X612920Y-8310293D01*
X612920Y-8310293D02*
X612920Y-8262674D01*
X612920Y-8262674D02*
X622444Y-8224579D01*
X622444Y-8224579D02*
X631967Y-8205531D01*
X631967Y-8205531D02*
X641491Y-8196008D01*
X641491Y-8196008D02*
X660539Y-8186484D01*
X812920Y-8386484D02*
X812920Y-8253150D01*
X812920Y-8272198D02*
X822443Y-8262674D01*
X822443Y-8262674D02*
X841491Y-8253150D01*
X841491Y-8253150D02*
X870063Y-8253150D01*
X870063Y-8253150D02*
X889110Y-8262674D01*
X889110Y-8262674D02*
X898634Y-8281722D01*
X898634Y-8281722D02*
X898634Y-8386484D01*
X898634Y-8281722D02*
X908158Y-8262674D01*
X908158Y-8262674D02*
X927205Y-8253150D01*
X927205Y-8253150D02*
X955777Y-8253150D01*
X955777Y-8253150D02*
X974824Y-8262674D01*
X974824Y-8262674D02*
X984348Y-8281722D01*
X984348Y-8281722D02*
X984348Y-8386484D01*
X1079586Y-8386484D02*
X1079586Y-8253150D01*
X1079586Y-8272198D02*
X1089110Y-8262674D01*
X1089110Y-8262674D02*
X1108158Y-8253150D01*
X1108158Y-8253150D02*
X1136729Y-8253150D01*
X1136729Y-8253150D02*
X1155777Y-8262674D01*
X1155777Y-8262674D02*
X1165301Y-8281722D01*
X1165301Y-8281722D02*
X1165301Y-8386484D01*
X1165301Y-8281722D02*
X1174825Y-8262674D01*
X1174825Y-8262674D02*
X1193872Y-8253150D01*
X1193872Y-8253150D02*
X1222444Y-8253150D01*
X1222444Y-8253150D02*
X1241491Y-8262674D01*
X1241491Y-8262674D02*
X1251015Y-8281722D01*
X1251015Y-8281722D02*
X1251015Y-8386484D01*
X1641491Y-8176960D02*
X1470063Y-8434103D01*
X1898634Y-8186484D02*
X1917682Y-8186484D01*
X1917682Y-8186484D02*
X1936729Y-8196008D01*
X1936729Y-8196008D02*
X1946253Y-8205531D01*
X1946253Y-8205531D02*
X1955777Y-8224579D01*
X1955777Y-8224579D02*
X1965301Y-8262674D01*
X1965301Y-8262674D02*
X1965301Y-8310293D01*
X1965301Y-8310293D02*
X1955777Y-8348388D01*
X1955777Y-8348388D02*
X1946253Y-8367436D01*
X1946253Y-8367436D02*
X1936729Y-8376960D01*
X1936729Y-8376960D02*
X1917682Y-8386484D01*
X1917682Y-8386484D02*
X1898634Y-8386484D01*
X1898634Y-8386484D02*
X1879586Y-8376960D01*
X1879586Y-8376960D02*
X1870063Y-8367436D01*
X1870063Y-8367436D02*
X1860539Y-8348388D01*
X1860539Y-8348388D02*
X1851015Y-8310293D01*
X1851015Y-8310293D02*
X1851015Y-8262674D01*
X1851015Y-8262674D02*
X1860539Y-8224579D01*
X1860539Y-8224579D02*
X1870063Y-8205531D01*
X1870063Y-8205531D02*
X1879586Y-8196008D01*
X1879586Y-8196008D02*
X1898634Y-8186484D01*
X2051015Y-8367436D02*
X2060539Y-8376960D01*
X2060539Y-8376960D02*
X2051015Y-8386484D01*
X2051015Y-8386484D02*
X2041491Y-8376960D01*
X2041491Y-8376960D02*
X2051015Y-8367436D01*
X2051015Y-8367436D02*
X2051015Y-8386484D01*
X2184348Y-8186484D02*
X2203396Y-8186484D01*
X2203396Y-8186484D02*
X2222444Y-8196008D01*
X2222444Y-8196008D02*
X2231968Y-8205531D01*
X2231968Y-8205531D02*
X2241491Y-8224579D01*
X2241491Y-8224579D02*
X2251015Y-8262674D01*
X2251015Y-8262674D02*
X2251015Y-8310293D01*
X2251015Y-8310293D02*
X2241491Y-8348388D01*
X2241491Y-8348388D02*
X2231968Y-8367436D01*
X2231968Y-8367436D02*
X2222444Y-8376960D01*
X2222444Y-8376960D02*
X2203396Y-8386484D01*
X2203396Y-8386484D02*
X2184348Y-8386484D01*
X2184348Y-8386484D02*
X2165301Y-8376960D01*
X2165301Y-8376960D02*
X2155777Y-8367436D01*
X2155777Y-8367436D02*
X2146253Y-8348388D01*
X2146253Y-8348388D02*
X2136729Y-8310293D01*
X2136729Y-8310293D02*
X2136729Y-8262674D01*
X2136729Y-8262674D02*
X2146253Y-8224579D01*
X2146253Y-8224579D02*
X2155777Y-8205531D01*
X2155777Y-8205531D02*
X2165301Y-8196008D01*
X2165301Y-8196008D02*
X2184348Y-8186484D01*
X2317682Y-8186484D02*
X2441491Y-8186484D01*
X2441491Y-8186484D02*
X2374825Y-8262674D01*
X2374825Y-8262674D02*
X2403396Y-8262674D01*
X2403396Y-8262674D02*
X2422444Y-8272198D01*
X2422444Y-8272198D02*
X2431968Y-8281722D01*
X2431968Y-8281722D02*
X2441491Y-8300769D01*
X2441491Y-8300769D02*
X2441491Y-8348388D01*
X2441491Y-8348388D02*
X2431968Y-8367436D01*
X2431968Y-8367436D02*
X2422444Y-8376960D01*
X2422444Y-8376960D02*
X2403396Y-8386484D01*
X2403396Y-8386484D02*
X2346253Y-8386484D01*
X2346253Y-8386484D02*
X2327206Y-8376960D01*
X2327206Y-8376960D02*
X2317682Y-8367436D01*
X2622444Y-8186484D02*
X2527206Y-8186484D01*
X2527206Y-8186484D02*
X2517682Y-8281722D01*
X2517682Y-8281722D02*
X2527206Y-8272198D01*
X2527206Y-8272198D02*
X2546253Y-8262674D01*
X2546253Y-8262674D02*
X2593872Y-8262674D01*
X2593872Y-8262674D02*
X2612920Y-8272198D01*
X2612920Y-8272198D02*
X2622444Y-8281722D01*
X2622444Y-8281722D02*
X2631968Y-8300769D01*
X2631968Y-8300769D02*
X2631968Y-8348388D01*
X2631968Y-8348388D02*
X2622444Y-8367436D01*
X2622444Y-8367436D02*
X2612920Y-8376960D01*
X2612920Y-8376960D02*
X2593872Y-8386484D01*
X2593872Y-8386484D02*
X2546253Y-8386484D01*
X2546253Y-8386484D02*
X2527206Y-8376960D01*
X2527206Y-8376960D02*
X2517682Y-8367436D01*
X2803396Y-8253150D02*
X2803396Y-8386484D01*
X2755777Y-8176960D02*
X2708158Y-8319817D01*
X2708158Y-8319817D02*
X2831967Y-8319817D01*
X2898634Y-8186484D02*
X2898634Y-8224579D01*
X2974825Y-8186484D02*
X2974825Y-8224579D01*
X3270063Y-8462674D02*
X3260539Y-8453150D01*
X3260539Y-8453150D02*
X3241491Y-8424579D01*
X3241491Y-8424579D02*
X3231968Y-8405531D01*
X3231968Y-8405531D02*
X3222444Y-8376960D01*
X3222444Y-8376960D02*
X3212920Y-8329341D01*
X3212920Y-8329341D02*
X3212920Y-8291246D01*
X3212920Y-8291246D02*
X3222444Y-8243627D01*
X3222444Y-8243627D02*
X3231968Y-8215055D01*
X3231968Y-8215055D02*
X3241491Y-8196008D01*
X3241491Y-8196008D02*
X3260539Y-8167436D01*
X3260539Y-8167436D02*
X3270063Y-8157912D01*
X3431968Y-8253150D02*
X3431968Y-8386484D01*
X3384348Y-8176960D02*
X3336729Y-8319817D01*
X3336729Y-8319817D02*
X3460539Y-8319817D01*
X3689110Y-8386484D02*
X3689110Y-8186484D01*
X3774825Y-8386484D02*
X3774825Y-8281722D01*
X3774825Y-8281722D02*
X3765301Y-8262674D01*
X3765301Y-8262674D02*
X3746253Y-8253150D01*
X3746253Y-8253150D02*
X3717682Y-8253150D01*
X3717682Y-8253150D02*
X3698634Y-8262674D01*
X3698634Y-8262674D02*
X3689110Y-8272198D01*
X3898634Y-8386484D02*
X3879587Y-8376960D01*
X3879587Y-8376960D02*
X3870063Y-8367436D01*
X3870063Y-8367436D02*
X3860539Y-8348388D01*
X3860539Y-8348388D02*
X3860539Y-8291246D01*
X3860539Y-8291246D02*
X3870063Y-8272198D01*
X3870063Y-8272198D02*
X3879587Y-8262674D01*
X3879587Y-8262674D02*
X3898634Y-8253150D01*
X3898634Y-8253150D02*
X3927206Y-8253150D01*
X3927206Y-8253150D02*
X3946253Y-8262674D01*
X3946253Y-8262674D02*
X3955777Y-8272198D01*
X3955777Y-8272198D02*
X3965301Y-8291246D01*
X3965301Y-8291246D02*
X3965301Y-8348388D01*
X3965301Y-8348388D02*
X3955777Y-8367436D01*
X3955777Y-8367436D02*
X3946253Y-8376960D01*
X3946253Y-8376960D02*
X3927206Y-8386484D01*
X3927206Y-8386484D02*
X3898634Y-8386484D01*
X4079587Y-8386484D02*
X4060539Y-8376960D01*
X4060539Y-8376960D02*
X4051015Y-8357912D01*
X4051015Y-8357912D02*
X4051015Y-8186484D01*
X4231968Y-8376960D02*
X4212920Y-8386484D01*
X4212920Y-8386484D02*
X4174825Y-8386484D01*
X4174825Y-8386484D02*
X4155777Y-8376960D01*
X4155777Y-8376960D02*
X4146253Y-8357912D01*
X4146253Y-8357912D02*
X4146253Y-8281722D01*
X4146253Y-8281722D02*
X4155777Y-8262674D01*
X4155777Y-8262674D02*
X4174825Y-8253150D01*
X4174825Y-8253150D02*
X4212920Y-8253150D01*
X4212920Y-8253150D02*
X4231968Y-8262674D01*
X4231968Y-8262674D02*
X4241492Y-8281722D01*
X4241492Y-8281722D02*
X4241492Y-8300769D01*
X4241492Y-8300769D02*
X4146253Y-8319817D01*
X4317682Y-8376960D02*
X4336730Y-8386484D01*
X4336730Y-8386484D02*
X4374825Y-8386484D01*
X4374825Y-8386484D02*
X4393873Y-8376960D01*
X4393873Y-8376960D02*
X4403396Y-8357912D01*
X4403396Y-8357912D02*
X4403396Y-8348388D01*
X4403396Y-8348388D02*
X4393873Y-8329341D01*
X4393873Y-8329341D02*
X4374825Y-8319817D01*
X4374825Y-8319817D02*
X4346253Y-8319817D01*
X4346253Y-8319817D02*
X4327206Y-8310293D01*
X4327206Y-8310293D02*
X4317682Y-8291246D01*
X4317682Y-8291246D02*
X4317682Y-8281722D01*
X4317682Y-8281722D02*
X4327206Y-8262674D01*
X4327206Y-8262674D02*
X4346253Y-8253150D01*
X4346253Y-8253150D02*
X4374825Y-8253150D01*
X4374825Y-8253150D02*
X4393873Y-8262674D01*
X4470063Y-8462674D02*
X4479587Y-8453150D01*
X4479587Y-8453150D02*
X4498634Y-8424579D01*
X4498634Y-8424579D02*
X4508158Y-8405531D01*
X4508158Y-8405531D02*
X4517682Y-8376960D01*
X4517682Y-8376960D02*
X4527206Y-8329341D01*
X4527206Y-8329341D02*
X4527206Y-8291246D01*
X4527206Y-8291246D02*
X4517682Y-8243627D01*
X4517682Y-8243627D02*
X4508158Y-8215055D01*
X4508158Y-8215055D02*
X4498634Y-8196008D01*
X4498634Y-8196008D02*
X4479587Y-8167436D01*
X4479587Y-8167436D02*
X4470063Y-8157912D01*
X4831968Y-8462674D02*
X4822444Y-8453150D01*
X4822444Y-8453150D02*
X4803396Y-8424579D01*
X4803396Y-8424579D02*
X4793873Y-8405531D01*
X4793873Y-8405531D02*
X4784349Y-8376960D01*
X4784349Y-8376960D02*
X4774825Y-8329341D01*
X4774825Y-8329341D02*
X4774825Y-8291246D01*
X4774825Y-8291246D02*
X4784349Y-8243627D01*
X4784349Y-8243627D02*
X4793873Y-8215055D01*
X4793873Y-8215055D02*
X4803396Y-8196008D01*
X4803396Y-8196008D02*
X4822444Y-8167436D01*
X4822444Y-8167436D02*
X4831968Y-8157912D01*
X4908158Y-8253150D02*
X4908158Y-8386484D01*
X4908158Y-8272198D02*
X4917682Y-8262674D01*
X4917682Y-8262674D02*
X4936730Y-8253150D01*
X4936730Y-8253150D02*
X4965301Y-8253150D01*
X4965301Y-8253150D02*
X4984349Y-8262674D01*
X4984349Y-8262674D02*
X4993873Y-8281722D01*
X4993873Y-8281722D02*
X4993873Y-8386484D01*
X5117682Y-8386484D02*
X5098634Y-8376960D01*
X5098634Y-8376960D02*
X5089111Y-8367436D01*
X5089111Y-8367436D02*
X5079587Y-8348388D01*
X5079587Y-8348388D02*
X5079587Y-8291246D01*
X5079587Y-8291246D02*
X5089111Y-8272198D01*
X5089111Y-8272198D02*
X5098634Y-8262674D01*
X5098634Y-8262674D02*
X5117682Y-8253150D01*
X5117682Y-8253150D02*
X5146254Y-8253150D01*
X5146254Y-8253150D02*
X5165301Y-8262674D01*
X5165301Y-8262674D02*
X5174825Y-8272198D01*
X5174825Y-8272198D02*
X5184349Y-8291246D01*
X5184349Y-8291246D02*
X5184349Y-8348388D01*
X5184349Y-8348388D02*
X5174825Y-8367436D01*
X5174825Y-8367436D02*
X5165301Y-8376960D01*
X5165301Y-8376960D02*
X5146254Y-8386484D01*
X5146254Y-8386484D02*
X5117682Y-8386484D01*
X5241492Y-8253150D02*
X5317682Y-8253150D01*
X5270063Y-8186484D02*
X5270063Y-8357912D01*
X5270063Y-8357912D02*
X5279587Y-8376960D01*
X5279587Y-8376960D02*
X5298634Y-8386484D01*
X5298634Y-8386484D02*
X5317682Y-8386484D01*
X5536730Y-8253150D02*
X5536730Y-8453150D01*
X5536730Y-8262674D02*
X5555777Y-8253150D01*
X5555777Y-8253150D02*
X5593873Y-8253150D01*
X5593873Y-8253150D02*
X5612920Y-8262674D01*
X5612920Y-8262674D02*
X5622444Y-8272198D01*
X5622444Y-8272198D02*
X5631968Y-8291246D01*
X5631968Y-8291246D02*
X5631968Y-8348388D01*
X5631968Y-8348388D02*
X5622444Y-8367436D01*
X5622444Y-8367436D02*
X5612920Y-8376960D01*
X5612920Y-8376960D02*
X5593873Y-8386484D01*
X5593873Y-8386484D02*
X5555777Y-8386484D01*
X5555777Y-8386484D02*
X5536730Y-8376960D01*
X5746253Y-8386484D02*
X5727206Y-8376960D01*
X5727206Y-8376960D02*
X5717682Y-8357912D01*
X5717682Y-8357912D02*
X5717682Y-8186484D01*
X5908158Y-8386484D02*
X5908158Y-8281722D01*
X5908158Y-8281722D02*
X5898634Y-8262674D01*
X5898634Y-8262674D02*
X5879587Y-8253150D01*
X5879587Y-8253150D02*
X5841492Y-8253150D01*
X5841492Y-8253150D02*
X5822444Y-8262674D01*
X5908158Y-8376960D02*
X5889111Y-8386484D01*
X5889111Y-8386484D02*
X5841492Y-8386484D01*
X5841492Y-8386484D02*
X5822444Y-8376960D01*
X5822444Y-8376960D02*
X5812920Y-8357912D01*
X5812920Y-8357912D02*
X5812920Y-8338865D01*
X5812920Y-8338865D02*
X5822444Y-8319817D01*
X5822444Y-8319817D02*
X5841492Y-8310293D01*
X5841492Y-8310293D02*
X5889111Y-8310293D01*
X5889111Y-8310293D02*
X5908158Y-8300769D01*
X5974825Y-8253150D02*
X6051015Y-8253150D01*
X6003396Y-8186484D02*
X6003396Y-8357912D01*
X6003396Y-8357912D02*
X6012920Y-8376960D01*
X6012920Y-8376960D02*
X6031968Y-8386484D01*
X6031968Y-8386484D02*
X6051015Y-8386484D01*
X6193873Y-8376960D02*
X6174825Y-8386484D01*
X6174825Y-8386484D02*
X6136730Y-8386484D01*
X6136730Y-8386484D02*
X6117682Y-8376960D01*
X6117682Y-8376960D02*
X6108158Y-8357912D01*
X6108158Y-8357912D02*
X6108158Y-8281722D01*
X6108158Y-8281722D02*
X6117682Y-8262674D01*
X6117682Y-8262674D02*
X6136730Y-8253150D01*
X6136730Y-8253150D02*
X6174825Y-8253150D01*
X6174825Y-8253150D02*
X6193873Y-8262674D01*
X6193873Y-8262674D02*
X6203396Y-8281722D01*
X6203396Y-8281722D02*
X6203396Y-8300769D01*
X6203396Y-8300769D02*
X6108158Y-8319817D01*
X6374825Y-8386484D02*
X6374825Y-8186484D01*
X6374825Y-8376960D02*
X6355777Y-8386484D01*
X6355777Y-8386484D02*
X6317682Y-8386484D01*
X6317682Y-8386484D02*
X6298634Y-8376960D01*
X6298634Y-8376960D02*
X6289111Y-8367436D01*
X6289111Y-8367436D02*
X6279587Y-8348388D01*
X6279587Y-8348388D02*
X6279587Y-8291246D01*
X6279587Y-8291246D02*
X6289111Y-8272198D01*
X6289111Y-8272198D02*
X6298634Y-8262674D01*
X6298634Y-8262674D02*
X6317682Y-8253150D01*
X6317682Y-8253150D02*
X6355777Y-8253150D01*
X6355777Y-8253150D02*
X6374825Y-8262674D01*
X6451015Y-8462674D02*
X6460539Y-8453150D01*
X6460539Y-8453150D02*
X6479587Y-8424579D01*
X6479587Y-8424579D02*
X6489111Y-8405531D01*
X6489111Y-8405531D02*
X6498634Y-8376960D01*
X6498634Y-8376960D02*
X6508158Y-8329341D01*
X6508158Y-8329341D02*
X6508158Y-8291246D01*
X6508158Y-8291246D02*
X6498634Y-8243627D01*
X6498634Y-8243627D02*
X6489111Y-8215055D01*
X6489111Y-8215055D02*
X6479587Y-8196008D01*
X6479587Y-8196008D02*
X6460539Y-8167436D01*
X6460539Y-8167436D02*
X6451015Y-8157912D01*
M02*
