%TF.GenerationSoftware,KiCad,Pcbnew,8.0.3*%
%TF.CreationDate,2024-12-09T22:45:46-06:00*%
%TF.ProjectId,M4_CAN_Feather_Carrier,4d345f43-414e-45f4-9665-61746865725f,6*%
%TF.SameCoordinates,Original*%
%TF.FileFunction,Drillmap*%
%TF.FilePolarity,Positive*%
%FSLAX45Y45*%
G04 Gerber Fmt 4.5, Leading zero omitted, Abs format (unit mm)*
G04 Created by KiCad (PCBNEW 8.0.3) date 2024-12-09 22:45:46*
%MOMM*%
%LPD*%
G01*
G04 APERTURE LIST*
%ADD10C,0.100000*%
%ADD11C,0.200000*%
%ADD12C,0.120000*%
%ADD13C,0.220000*%
G04 APERTURE END LIST*
D10*
X-300000Y300000D02*
X6750000Y300000D01*
X6750000Y-7650000D01*
X-300000Y-7650000D01*
X-300000Y300000D01*
D11*
D10*
X2705000Y-257000D02*
X2735000Y-287000D01*
X2735000Y-257000D02*
X2705000Y-287000D01*
X2705000Y-387000D02*
X2735000Y-417000D01*
X2735000Y-387000D02*
X2705000Y-417000D01*
X2705000Y-517000D02*
X2735000Y-547000D01*
X2735000Y-517000D02*
X2705000Y-547000D01*
X2705000Y-647000D02*
X2735000Y-677000D01*
X2735000Y-647000D02*
X2705000Y-677000D01*
X2835000Y-257000D02*
X2865000Y-287000D01*
X2865000Y-257000D02*
X2835000Y-287000D01*
X2835000Y-387000D02*
X2865000Y-417000D01*
X2865000Y-387000D02*
X2835000Y-417000D01*
X2835000Y-517000D02*
X2865000Y-547000D01*
X2865000Y-517000D02*
X2835000Y-547000D01*
X2835000Y-647000D02*
X2865000Y-677000D01*
X2865000Y-647000D02*
X2835000Y-677000D01*
X50000Y-2229000D02*
G75*
G02*
X10000Y-2229000I-20000J0D01*
G01*
X10000Y-2229000D02*
G75*
G02*
X50000Y-2229000I20000J0D01*
G01*
X53000Y-2476000D02*
G75*
G02*
X13000Y-2476000I-20000J0D01*
G01*
X13000Y-2476000D02*
G75*
G02*
X53000Y-2476000I20000J0D01*
G01*
X53000Y-2985000D02*
G75*
G02*
X13000Y-2985000I-20000J0D01*
G01*
X13000Y-2985000D02*
G75*
G02*
X53000Y-2985000I20000J0D01*
G01*
X54000Y-2735000D02*
G75*
G02*
X14000Y-2735000I-20000J0D01*
G01*
X14000Y-2735000D02*
G75*
G02*
X54000Y-2735000I20000J0D01*
G01*
X130000Y-4460000D02*
G75*
G02*
X90000Y-4460000I-20000J0D01*
G01*
X90000Y-4460000D02*
G75*
G02*
X130000Y-4460000I20000J0D01*
G01*
X130000Y-4570000D02*
G75*
G02*
X90000Y-4570000I-20000J0D01*
G01*
X90000Y-4570000D02*
G75*
G02*
X130000Y-4570000I20000J0D01*
G01*
X480000Y-4490000D02*
G75*
G02*
X440000Y-4490000I-20000J0D01*
G01*
X440000Y-4490000D02*
G75*
G02*
X480000Y-4490000I20000J0D01*
G01*
X580000Y-4490000D02*
G75*
G02*
X540000Y-4490000I-20000J0D01*
G01*
X540000Y-4490000D02*
G75*
G02*
X580000Y-4490000I20000J0D01*
G01*
X680000Y-4490000D02*
G75*
G02*
X640000Y-4490000I-20000J0D01*
G01*
X640000Y-4490000D02*
G75*
G02*
X680000Y-4490000I20000J0D01*
G01*
X935000Y-5880000D02*
G75*
G02*
X895000Y-5880000I-20000J0D01*
G01*
X895000Y-5880000D02*
G75*
G02*
X935000Y-5880000I20000J0D01*
G01*
X987740Y-2367280D02*
G75*
G02*
X947740Y-2367280I-20000J0D01*
G01*
X947740Y-2367280D02*
G75*
G02*
X987740Y-2367280I20000J0D01*
G01*
X987740Y-2875280D02*
G75*
G02*
X947740Y-2875280I-20000J0D01*
G01*
X947740Y-2875280D02*
G75*
G02*
X987740Y-2875280I20000J0D01*
G01*
X990280Y-2623820D02*
G75*
G02*
X950280Y-2623820I-20000J0D01*
G01*
X950280Y-2623820D02*
G75*
G02*
X990280Y-2623820I20000J0D01*
G01*
X992820Y-2113280D02*
G75*
G02*
X952820Y-2113280I-20000J0D01*
G01*
X952820Y-2113280D02*
G75*
G02*
X992820Y-2113280I20000J0D01*
G01*
X1080000Y-2698000D02*
G75*
G02*
X1040000Y-2698000I-20000J0D01*
G01*
X1040000Y-2698000D02*
G75*
G02*
X1080000Y-2698000I20000J0D01*
G01*
X1175000Y-2786000D02*
G75*
G02*
X1135000Y-2786000I-20000J0D01*
G01*
X1135000Y-2786000D02*
G75*
G02*
X1175000Y-2786000I20000J0D01*
G01*
X1207000Y-2267000D02*
G75*
G02*
X1167000Y-2267000I-20000J0D01*
G01*
X1167000Y-2267000D02*
G75*
G02*
X1207000Y-2267000I20000J0D01*
G01*
X1207250Y-2423250D02*
G75*
G02*
X1167250Y-2423250I-20000J0D01*
G01*
X1167250Y-2423250D02*
G75*
G02*
X1207250Y-2423250I20000J0D01*
G01*
X1213750Y-3545000D02*
G75*
G02*
X1173750Y-3545000I-20000J0D01*
G01*
X1173750Y-3545000D02*
G75*
G02*
X1213750Y-3545000I20000J0D01*
G01*
X1216000Y-3230880D02*
G75*
G02*
X1176000Y-3230880I-20000J0D01*
G01*
X1176000Y-3230880D02*
G75*
G02*
X1216000Y-3230880I20000J0D01*
G01*
X1219000Y-3387000D02*
G75*
G02*
X1179000Y-3387000I-20000J0D01*
G01*
X1179000Y-3387000D02*
G75*
G02*
X1219000Y-3387000I20000J0D01*
G01*
X1290000Y-5495440D02*
G75*
G02*
X1250000Y-5495440I-20000J0D01*
G01*
X1250000Y-5495440D02*
G75*
G02*
X1290000Y-5495440I20000J0D01*
G01*
X1353500Y-6003440D02*
G75*
G02*
X1313500Y-6003440I-20000J0D01*
G01*
X1313500Y-6003440D02*
G75*
G02*
X1353500Y-6003440I20000J0D01*
G01*
X1592260Y-6399680D02*
G75*
G02*
X1552260Y-6399680I-20000J0D01*
G01*
X1552260Y-6399680D02*
G75*
G02*
X1592260Y-6399680I20000J0D01*
G01*
X1595000Y25000D02*
G75*
G02*
X1555000Y25000I-20000J0D01*
G01*
X1555000Y25000D02*
G75*
G02*
X1595000Y25000I20000J0D01*
G01*
X1596000Y-3231000D02*
G75*
G02*
X1556000Y-3231000I-20000J0D01*
G01*
X1556000Y-3231000D02*
G75*
G02*
X1596000Y-3231000I20000J0D01*
G01*
X1598000Y145000D02*
G75*
G02*
X1558000Y145000I-20000J0D01*
G01*
X1558000Y145000D02*
G75*
G02*
X1598000Y145000I20000J0D01*
G01*
X1604960Y-5134760D02*
G75*
G02*
X1564960Y-5134760I-20000J0D01*
G01*
X1564960Y-5134760D02*
G75*
G02*
X1604960Y-5134760I20000J0D01*
G01*
X1663000Y-3386000D02*
G75*
G02*
X1623000Y-3386000I-20000J0D01*
G01*
X1623000Y-3386000D02*
G75*
G02*
X1663000Y-3386000I20000J0D01*
G01*
X1715000Y25000D02*
G75*
G02*
X1675000Y25000I-20000J0D01*
G01*
X1675000Y25000D02*
G75*
G02*
X1715000Y25000I20000J0D01*
G01*
X1718000Y145000D02*
G75*
G02*
X1678000Y145000I-20000J0D01*
G01*
X1678000Y145000D02*
G75*
G02*
X1718000Y145000I20000J0D01*
G01*
X1780000Y-7370000D02*
G75*
G02*
X1740000Y-7370000I-20000J0D01*
G01*
X1740000Y-7370000D02*
G75*
G02*
X1780000Y-7370000I20000J0D01*
G01*
X1786000Y-6999000D02*
G75*
G02*
X1746000Y-6999000I-20000J0D01*
G01*
X1746000Y-6999000D02*
G75*
G02*
X1786000Y-6999000I20000J0D01*
G01*
X1805620Y-5833260D02*
G75*
G02*
X1765620Y-5833260I-20000J0D01*
G01*
X1765620Y-5833260D02*
G75*
G02*
X1805620Y-5833260I20000J0D01*
G01*
X1820000Y-4940000D02*
G75*
G02*
X1780000Y-4940000I-20000J0D01*
G01*
X1780000Y-4940000D02*
G75*
G02*
X1820000Y-4940000I20000J0D01*
G01*
X1825000Y-3530000D02*
G75*
G02*
X1785000Y-3530000I-20000J0D01*
G01*
X1785000Y-3530000D02*
G75*
G02*
X1825000Y-3530000I20000J0D01*
G01*
X1886000Y-6999000D02*
G75*
G02*
X1846000Y-6999000I-20000J0D01*
G01*
X1846000Y-6999000D02*
G75*
G02*
X1886000Y-6999000I20000J0D01*
G01*
X1892000Y-1568000D02*
G75*
G02*
X1852000Y-1568000I-20000J0D01*
G01*
X1852000Y-1568000D02*
G75*
G02*
X1892000Y-1568000I20000J0D01*
G01*
X1898000Y-1833000D02*
G75*
G02*
X1858000Y-1833000I-20000J0D01*
G01*
X1858000Y-1833000D02*
G75*
G02*
X1898000Y-1833000I20000J0D01*
G01*
X1962550Y-3080000D02*
G75*
G02*
X1922550Y-3080000I-20000J0D01*
G01*
X1922550Y-3080000D02*
G75*
G02*
X1962550Y-3080000I20000J0D01*
G01*
X2015000Y-3205000D02*
G75*
G02*
X1975000Y-3205000I-20000J0D01*
G01*
X1975000Y-3205000D02*
G75*
G02*
X2015000Y-3205000I20000J0D01*
G01*
X2067135Y-3292550D02*
G75*
G02*
X2027135Y-3292550I-20000J0D01*
G01*
X2027135Y-3292550D02*
G75*
G02*
X2067135Y-3292550I20000J0D01*
G01*
X2145000Y-3415000D02*
G75*
G02*
X2105000Y-3415000I-20000J0D01*
G01*
X2105000Y-3415000D02*
G75*
G02*
X2145000Y-3415000I20000J0D01*
G01*
X2306000Y-5495440D02*
G75*
G02*
X2266000Y-5495440I-20000J0D01*
G01*
X2266000Y-5495440D02*
G75*
G02*
X2306000Y-5495440I20000J0D01*
G01*
X2306000Y-6003440D02*
G75*
G02*
X2266000Y-6003440I-20000J0D01*
G01*
X2266000Y-6003440D02*
G75*
G02*
X2306000Y-6003440I20000J0D01*
G01*
X2330000Y-2885000D02*
G75*
G02*
X2290000Y-2885000I-20000J0D01*
G01*
X2290000Y-2885000D02*
G75*
G02*
X2330000Y-2885000I20000J0D01*
G01*
X2387960Y-7431480D02*
G75*
G02*
X2347960Y-7431480I-20000J0D01*
G01*
X2347960Y-7431480D02*
G75*
G02*
X2387960Y-7431480I20000J0D01*
G01*
X2472380Y-7430640D02*
G75*
G02*
X2432380Y-7430640I-20000J0D01*
G01*
X2432380Y-7430640D02*
G75*
G02*
X2472380Y-7430640I20000J0D01*
G01*
X2560000Y-6220000D02*
G75*
G02*
X2520000Y-6220000I-20000J0D01*
G01*
X2520000Y-6220000D02*
G75*
G02*
X2560000Y-6220000I20000J0D01*
G01*
X2570000Y-6690000D02*
G75*
G02*
X2530000Y-6690000I-20000J0D01*
G01*
X2530000Y-6690000D02*
G75*
G02*
X2570000Y-6690000I20000J0D01*
G01*
X2580000Y-2397000D02*
G75*
G02*
X2540000Y-2397000I-20000J0D01*
G01*
X2540000Y-2397000D02*
G75*
G02*
X2580000Y-2397000I20000J0D01*
G01*
X2635000Y-6295000D02*
G75*
G02*
X2595000Y-6295000I-20000J0D01*
G01*
X2595000Y-6295000D02*
G75*
G02*
X2635000Y-6295000I20000J0D01*
G01*
X2670000Y-3112000D02*
G75*
G02*
X2630000Y-3112000I-20000J0D01*
G01*
X2630000Y-3112000D02*
G75*
G02*
X2670000Y-3112000I20000J0D01*
G01*
X2706594Y-5558698D02*
G75*
G02*
X2666594Y-5558698I-20000J0D01*
G01*
X2666594Y-5558698D02*
G75*
G02*
X2706594Y-5558698I20000J0D01*
G01*
X2746000Y-3182000D02*
G75*
G02*
X2706000Y-3182000I-20000J0D01*
G01*
X2706000Y-3182000D02*
G75*
G02*
X2746000Y-3182000I20000J0D01*
G01*
X2751000Y-2068000D02*
G75*
G02*
X2711000Y-2068000I-20000J0D01*
G01*
X2711000Y-2068000D02*
G75*
G02*
X2751000Y-2068000I20000J0D01*
G01*
X2787000Y-1069000D02*
G75*
G02*
X2747000Y-1069000I-20000J0D01*
G01*
X2747000Y-1069000D02*
G75*
G02*
X2787000Y-1069000I20000J0D01*
G01*
X2790000Y-920000D02*
G75*
G02*
X2750000Y-920000I-20000J0D01*
G01*
X2750000Y-920000D02*
G75*
G02*
X2790000Y-920000I20000J0D01*
G01*
X2800000Y-5594410D02*
G75*
G02*
X2760000Y-5594410I-20000J0D01*
G01*
X2760000Y-5594410D02*
G75*
G02*
X2800000Y-5594410I20000J0D01*
G01*
X2815000Y-780000D02*
G75*
G02*
X2775000Y-780000I-20000J0D01*
G01*
X2775000Y-780000D02*
G75*
G02*
X2815000Y-780000I20000J0D01*
G01*
X2826000Y-3255000D02*
G75*
G02*
X2786000Y-3255000I-20000J0D01*
G01*
X2786000Y-3255000D02*
G75*
G02*
X2826000Y-3255000I20000J0D01*
G01*
X2829000Y-1999000D02*
G75*
G02*
X2789000Y-1999000I-20000J0D01*
G01*
X2789000Y-1999000D02*
G75*
G02*
X2829000Y-1999000I20000J0D01*
G01*
X2890000Y-6950000D02*
G75*
G02*
X2850000Y-6950000I-20000J0D01*
G01*
X2850000Y-6950000D02*
G75*
G02*
X2890000Y-6950000I20000J0D01*
G01*
X2902000Y-3328000D02*
G75*
G02*
X2862000Y-3328000I-20000J0D01*
G01*
X2862000Y-3328000D02*
G75*
G02*
X2902000Y-3328000I20000J0D01*
G01*
X2912000Y-1936000D02*
G75*
G02*
X2872000Y-1936000I-20000J0D01*
G01*
X2872000Y-1936000D02*
G75*
G02*
X2912000Y-1936000I20000J0D01*
G01*
X2920000Y-7330000D02*
G75*
G02*
X2880000Y-7330000I-20000J0D01*
G01*
X2880000Y-7330000D02*
G75*
G02*
X2920000Y-7330000I20000J0D01*
G01*
X2969000Y-4000000D02*
G75*
G02*
X2929000Y-4000000I-20000J0D01*
G01*
X2929000Y-4000000D02*
G75*
G02*
X2969000Y-4000000I20000J0D01*
G01*
X3240000Y-7070000D02*
G75*
G02*
X3200000Y-7070000I-20000J0D01*
G01*
X3200000Y-7070000D02*
G75*
G02*
X3240000Y-7070000I20000J0D01*
G01*
X3264000Y-798000D02*
G75*
G02*
X3224000Y-798000I-20000J0D01*
G01*
X3224000Y-798000D02*
G75*
G02*
X3264000Y-798000I20000J0D01*
G01*
X3304380Y-7405640D02*
G75*
G02*
X3264380Y-7405640I-20000J0D01*
G01*
X3264380Y-7405640D02*
G75*
G02*
X3304380Y-7405640I20000J0D01*
G01*
X3390000Y-6880000D02*
G75*
G02*
X3350000Y-6880000I-20000J0D01*
G01*
X3350000Y-6880000D02*
G75*
G02*
X3390000Y-6880000I20000J0D01*
G01*
X3630000Y-1000000D02*
G75*
G02*
X3590000Y-1000000I-20000J0D01*
G01*
X3590000Y-1000000D02*
G75*
G02*
X3630000Y-1000000I20000J0D01*
G01*
X3637000Y-805000D02*
G75*
G02*
X3597000Y-805000I-20000J0D01*
G01*
X3597000Y-805000D02*
G75*
G02*
X3637000Y-805000I20000J0D01*
G01*
X3735000Y-1000000D02*
G75*
G02*
X3695000Y-1000000I-20000J0D01*
G01*
X3695000Y-1000000D02*
G75*
G02*
X3735000Y-1000000I20000J0D01*
G01*
X3800000Y-7070000D02*
G75*
G02*
X3760000Y-7070000I-20000J0D01*
G01*
X3760000Y-7070000D02*
G75*
G02*
X3800000Y-7070000I20000J0D01*
G01*
X3906000Y-111000D02*
G75*
G02*
X3866000Y-111000I-20000J0D01*
G01*
X3866000Y-111000D02*
G75*
G02*
X3906000Y-111000I20000J0D01*
G01*
X3906000Y-241667D02*
G75*
G02*
X3866000Y-241667I-20000J0D01*
G01*
X3866000Y-241667D02*
G75*
G02*
X3906000Y-241667I20000J0D01*
G01*
X3906000Y-372333D02*
G75*
G02*
X3866000Y-372333I-20000J0D01*
G01*
X3866000Y-372333D02*
G75*
G02*
X3906000Y-372333I20000J0D01*
G01*
X3906000Y-503000D02*
G75*
G02*
X3866000Y-503000I-20000J0D01*
G01*
X3866000Y-503000D02*
G75*
G02*
X3906000Y-503000I20000J0D01*
G01*
X4020000Y-7090000D02*
G75*
G02*
X3980000Y-7090000I-20000J0D01*
G01*
X3980000Y-7090000D02*
G75*
G02*
X4020000Y-7090000I20000J0D01*
G01*
X4261000Y-3060000D02*
G75*
G02*
X4221000Y-3060000I-20000J0D01*
G01*
X4221000Y-3060000D02*
G75*
G02*
X4261000Y-3060000I20000J0D01*
G01*
X4290680Y-7430640D02*
G75*
G02*
X4250680Y-7430640I-20000J0D01*
G01*
X4250680Y-7430640D02*
G75*
G02*
X4290680Y-7430640I20000J0D01*
G01*
X4293000Y-4999000D02*
G75*
G02*
X4253000Y-4999000I-20000J0D01*
G01*
X4253000Y-4999000D02*
G75*
G02*
X4293000Y-4999000I20000J0D01*
G01*
X4351000Y162000D02*
G75*
G02*
X4311000Y162000I-20000J0D01*
G01*
X4311000Y162000D02*
G75*
G02*
X4351000Y162000I20000J0D01*
G01*
X4444000Y-1181000D02*
G75*
G02*
X4404000Y-1181000I-20000J0D01*
G01*
X4404000Y-1181000D02*
G75*
G02*
X4444000Y-1181000I20000J0D01*
G01*
X4450000Y-4099800D02*
G75*
G02*
X4410000Y-4099800I-20000J0D01*
G01*
X4410000Y-4099800D02*
G75*
G02*
X4450000Y-4099800I20000J0D01*
G01*
X4460000Y-5805000D02*
G75*
G02*
X4420000Y-5805000I-20000J0D01*
G01*
X4420000Y-5805000D02*
G75*
G02*
X4460000Y-5805000I20000J0D01*
G01*
X4482000Y-394000D02*
G75*
G02*
X4442000Y-394000I-20000J0D01*
G01*
X4442000Y-394000D02*
G75*
G02*
X4482000Y-394000I20000J0D01*
G01*
X4483000Y-492000D02*
G75*
G02*
X4443000Y-492000I-20000J0D01*
G01*
X4443000Y-492000D02*
G75*
G02*
X4483000Y-492000I20000J0D01*
G01*
X4483000Y-590000D02*
G75*
G02*
X4443000Y-590000I-20000J0D01*
G01*
X4443000Y-590000D02*
G75*
G02*
X4483000Y-590000I20000J0D01*
G01*
X4535000Y-3140000D02*
G75*
G02*
X4495000Y-3140000I-20000J0D01*
G01*
X4495000Y-3140000D02*
G75*
G02*
X4535000Y-3140000I20000J0D01*
G01*
X4572000Y-342000D02*
G75*
G02*
X4532000Y-342000I-20000J0D01*
G01*
X4532000Y-342000D02*
G75*
G02*
X4572000Y-342000I20000J0D01*
G01*
X4573000Y-440000D02*
G75*
G02*
X4533000Y-440000I-20000J0D01*
G01*
X4533000Y-440000D02*
G75*
G02*
X4573000Y-440000I20000J0D01*
G01*
X4573000Y-538000D02*
G75*
G02*
X4533000Y-538000I-20000J0D01*
G01*
X4533000Y-538000D02*
G75*
G02*
X4573000Y-538000I20000J0D01*
G01*
X4615000Y-1040000D02*
G75*
G02*
X4575000Y-1040000I-20000J0D01*
G01*
X4575000Y-1040000D02*
G75*
G02*
X4615000Y-1040000I20000J0D01*
G01*
X4740000Y-6950000D02*
G75*
G02*
X4700000Y-6950000I-20000J0D01*
G01*
X4700000Y-6950000D02*
G75*
G02*
X4740000Y-6950000I20000J0D01*
G01*
X4741000Y-7338000D02*
G75*
G02*
X4701000Y-7338000I-20000J0D01*
G01*
X4701000Y-7338000D02*
G75*
G02*
X4741000Y-7338000I20000J0D01*
G01*
X4982000Y-2592000D02*
G75*
G02*
X4942000Y-2592000I-20000J0D01*
G01*
X4942000Y-2592000D02*
G75*
G02*
X4982000Y-2592000I20000J0D01*
G01*
X5075000Y-3220000D02*
G75*
G02*
X5035000Y-3220000I-20000J0D01*
G01*
X5035000Y-3220000D02*
G75*
G02*
X5075000Y-3220000I20000J0D01*
G01*
X5095860Y-7405640D02*
G75*
G02*
X5055860Y-7405640I-20000J0D01*
G01*
X5055860Y-7405640D02*
G75*
G02*
X5095860Y-7405640I20000J0D01*
G01*
X5112000Y-3841000D02*
G75*
G02*
X5072000Y-3841000I-20000J0D01*
G01*
X5072000Y-3841000D02*
G75*
G02*
X5112000Y-3841000I20000J0D01*
G01*
X5160000Y-6930500D02*
G75*
G02*
X5120000Y-6930500I-20000J0D01*
G01*
X5120000Y-6930500D02*
G75*
G02*
X5160000Y-6930500I20000J0D01*
G01*
X5233000Y-7300000D02*
G75*
G02*
X5193000Y-7300000I-20000J0D01*
G01*
X5193000Y-7300000D02*
G75*
G02*
X5233000Y-7300000I20000J0D01*
G01*
X5355000Y-3065000D02*
G75*
G02*
X5315000Y-3065000I-20000J0D01*
G01*
X5315000Y-3065000D02*
G75*
G02*
X5355000Y-3065000I20000J0D01*
G01*
X5367000Y-3325000D02*
G75*
G02*
X5327000Y-3325000I-20000J0D01*
G01*
X5327000Y-3325000D02*
G75*
G02*
X5367000Y-3325000I20000J0D01*
G01*
X5367000Y-3841000D02*
G75*
G02*
X5327000Y-3841000I-20000J0D01*
G01*
X5327000Y-3841000D02*
G75*
G02*
X5367000Y-3841000I20000J0D01*
G01*
X5485000Y-2205000D02*
G75*
G02*
X5445000Y-2205000I-20000J0D01*
G01*
X5445000Y-2205000D02*
G75*
G02*
X5485000Y-2205000I20000J0D01*
G01*
X5727000Y-7519000D02*
G75*
G02*
X5687000Y-7519000I-20000J0D01*
G01*
X5687000Y-7519000D02*
G75*
G02*
X5727000Y-7519000I20000J0D01*
G01*
X5765000Y-2075000D02*
G75*
G02*
X5725000Y-2075000I-20000J0D01*
G01*
X5725000Y-2075000D02*
G75*
G02*
X5765000Y-2075000I20000J0D01*
G01*
X5793000Y-7081000D02*
G75*
G02*
X5753000Y-7081000I-20000J0D01*
G01*
X5753000Y-7081000D02*
G75*
G02*
X5793000Y-7081000I20000J0D01*
G01*
X5805000Y-2590000D02*
G75*
G02*
X5765000Y-2590000I-20000J0D01*
G01*
X5765000Y-2590000D02*
G75*
G02*
X5805000Y-2590000I20000J0D01*
G01*
X5825000Y-2840000D02*
G75*
G02*
X5785000Y-2840000I-20000J0D01*
G01*
X5785000Y-2840000D02*
G75*
G02*
X5825000Y-2840000I20000J0D01*
G01*
X5943000Y-7076000D02*
G75*
G02*
X5903000Y-7076000I-20000J0D01*
G01*
X5903000Y-7076000D02*
G75*
G02*
X5943000Y-7076000I20000J0D01*
G01*
X6015000Y-2970000D02*
G75*
G02*
X5975000Y-2970000I-20000J0D01*
G01*
X5975000Y-2970000D02*
G75*
G02*
X6015000Y-2970000I20000J0D01*
G01*
X6083000Y-7404000D02*
G75*
G02*
X6043000Y-7404000I-20000J0D01*
G01*
X6043000Y-7404000D02*
G75*
G02*
X6083000Y-7404000I20000J0D01*
G01*
X6160000Y-800000D02*
G75*
G02*
X6120000Y-800000I-20000J0D01*
G01*
X6120000Y-800000D02*
G75*
G02*
X6160000Y-800000I20000J0D01*
G01*
X6180000Y-2775000D02*
G75*
G02*
X6140000Y-2775000I-20000J0D01*
G01*
X6140000Y-2775000D02*
G75*
G02*
X6180000Y-2775000I20000J0D01*
G01*
X6355000Y-3245000D02*
G75*
G02*
X6315000Y-3245000I-20000J0D01*
G01*
X6315000Y-3245000D02*
G75*
G02*
X6355000Y-3245000I20000J0D01*
G01*
X6360000Y-660000D02*
G75*
G02*
X6320000Y-660000I-20000J0D01*
G01*
X6320000Y-660000D02*
G75*
G02*
X6360000Y-660000I20000J0D01*
G01*
X6385000Y-2055000D02*
G75*
G02*
X6345000Y-2055000I-20000J0D01*
G01*
X6345000Y-2055000D02*
G75*
G02*
X6385000Y-2055000I20000J0D01*
G01*
X6425000Y-2890000D02*
G75*
G02*
X6385000Y-2890000I-20000J0D01*
G01*
X6385000Y-2890000D02*
G75*
G02*
X6425000Y-2890000I20000J0D01*
G01*
X6560000Y-1390000D02*
G75*
G02*
X6520000Y-1390000I-20000J0D01*
G01*
X6520000Y-1390000D02*
G75*
G02*
X6560000Y-1390000I20000J0D01*
G01*
X6580000Y-1560000D02*
G75*
G02*
X6540000Y-1560000I-20000J0D01*
G01*
X6540000Y-1560000D02*
G75*
G02*
X6580000Y-1560000I20000J0D01*
G01*
X262850Y-1735030D02*
X262850Y-1835030D01*
X212850Y-1785030D02*
X312850Y-1785030D01*
X270700Y-2063230D02*
X270700Y-2163230D01*
X220700Y-2113230D02*
X320700Y-2113230D01*
X270700Y-2317230D02*
X270700Y-2417230D01*
X220700Y-2367230D02*
X320700Y-2367230D01*
X270700Y-2571230D02*
X270700Y-2671230D01*
X220700Y-2621230D02*
X320700Y-2621230D01*
X270700Y-2825230D02*
X270700Y-2925230D01*
X220700Y-2875230D02*
X320700Y-2875230D01*
X270700Y-3318000D02*
X270700Y-3418000D01*
X220700Y-3368000D02*
X320700Y-3368000D01*
X270700Y-3572000D02*
X270700Y-3672000D01*
X220700Y-3622000D02*
X320700Y-3622000D01*
X270700Y-3826000D02*
X270700Y-3926000D01*
X220700Y-3876000D02*
X320700Y-3876000D01*
X270700Y-4080000D02*
X270700Y-4180000D01*
X220700Y-4130000D02*
X320700Y-4130000D01*
X511571Y-6733000D02*
X511571Y-6833000D01*
X461571Y-6783000D02*
X561571Y-6783000D01*
X511571Y-6987000D02*
X511571Y-7087000D01*
X461571Y-7037000D02*
X561571Y-7037000D01*
X511571Y-7241000D02*
X511571Y-7341000D01*
X461571Y-7291000D02*
X561571Y-7291000D01*
X516850Y-1735030D02*
X516850Y-1835030D01*
X466850Y-1785030D02*
X566850Y-1785030D01*
X524700Y-2063230D02*
X524700Y-2163230D01*
X474700Y-2113230D02*
X574700Y-2113230D01*
X524700Y-2317230D02*
X524700Y-2417230D01*
X474700Y-2367230D02*
X574700Y-2367230D01*
X524700Y-2571230D02*
X524700Y-2671230D01*
X474700Y-2621230D02*
X574700Y-2621230D01*
X524700Y-2825230D02*
X524700Y-2925230D01*
X474700Y-2875230D02*
X574700Y-2875230D01*
X524700Y-3318000D02*
X524700Y-3418000D01*
X474700Y-3368000D02*
X574700Y-3368000D01*
X524700Y-3572000D02*
X524700Y-3672000D01*
X474700Y-3622000D02*
X574700Y-3622000D01*
X524700Y-3826000D02*
X524700Y-3926000D01*
X474700Y-3876000D02*
X574700Y-3876000D01*
X524700Y-4080000D02*
X524700Y-4180000D01*
X474700Y-4130000D02*
X574700Y-4130000D01*
X765571Y-6733000D02*
X765571Y-6833000D01*
X715571Y-6783000D02*
X815571Y-6783000D01*
X765571Y-6987000D02*
X765571Y-7087000D01*
X715571Y-7037000D02*
X815571Y-7037000D01*
X765571Y-7241000D02*
X765571Y-7341000D01*
X715571Y-7291000D02*
X815571Y-7291000D01*
X770850Y-1735030D02*
X770850Y-1835030D01*
X720850Y-1785030D02*
X820850Y-1785030D01*
X778700Y-2063230D02*
X778700Y-2163230D01*
X728700Y-2113230D02*
X828700Y-2113230D01*
X778700Y-2317230D02*
X778700Y-2417230D01*
X728700Y-2367230D02*
X828700Y-2367230D01*
X778700Y-2571230D02*
X778700Y-2671230D01*
X728700Y-2621230D02*
X828700Y-2621230D01*
X778700Y-2825230D02*
X778700Y-2925230D01*
X728700Y-2875230D02*
X828700Y-2875230D01*
X1019571Y-6733000D02*
X1019571Y-6833000D01*
X969571Y-6783000D02*
X1069571Y-6783000D01*
X1019571Y-6987000D02*
X1019571Y-7087000D01*
X969571Y-7037000D02*
X1069571Y-7037000D01*
X1019571Y-7241000D02*
X1019571Y-7341000D01*
X969571Y-7291000D02*
X1069571Y-7291000D01*
X1273571Y-6733000D02*
X1273571Y-6833000D01*
X1223571Y-6783000D02*
X1323571Y-6783000D01*
X1273571Y-6987000D02*
X1273571Y-7087000D01*
X1223571Y-7037000D02*
X1323571Y-7037000D01*
X1273571Y-7241000D02*
X1273571Y-7341000D01*
X1223571Y-7291000D02*
X1323571Y-7291000D01*
X2427000Y-3682500D02*
X2427000Y-3782500D01*
X2377000Y-3732500D02*
X2477000Y-3732500D01*
X2427000Y-6520500D02*
X2427000Y-6620500D01*
X2377000Y-6570500D02*
X2477000Y-6570500D01*
X2678000Y-3682500D02*
X2678000Y-3782500D01*
X2628000Y-3732500D02*
X2728000Y-3732500D01*
X2678000Y-6520500D02*
X2678000Y-6620500D01*
X2628000Y-6570500D02*
X2728000Y-6570500D01*
X2932000Y-3682500D02*
X2932000Y-3782500D01*
X2882000Y-3732500D02*
X2982000Y-3732500D01*
X2932000Y-6520500D02*
X2932000Y-6620500D01*
X2882000Y-6570500D02*
X2982000Y-6570500D01*
X3186000Y-3682500D02*
X3186000Y-3782500D01*
X3136000Y-3732500D02*
X3236000Y-3732500D01*
X3186000Y-6520500D02*
X3186000Y-6620500D01*
X3136000Y-6570500D02*
X3236000Y-6570500D01*
X3440000Y-1650500D02*
X3440000Y-1750500D01*
X3390000Y-1700500D02*
X3490000Y-1700500D01*
X3440000Y-3682500D02*
X3440000Y-3782500D01*
X3390000Y-3732500D02*
X3490000Y-3732500D01*
X3440000Y-4488500D02*
X3440000Y-4588500D01*
X3390000Y-4538500D02*
X3490000Y-4538500D01*
X3440000Y-6520500D02*
X3440000Y-6620500D01*
X3390000Y-6570500D02*
X3490000Y-6570500D01*
X3694000Y-1650500D02*
X3694000Y-1750500D01*
X3644000Y-1700500D02*
X3744000Y-1700500D01*
X3694000Y-3682500D02*
X3694000Y-3782500D01*
X3644000Y-3732500D02*
X3744000Y-3732500D01*
X3694000Y-4488500D02*
X3694000Y-4588500D01*
X3644000Y-4538500D02*
X3744000Y-4538500D01*
X3694000Y-6520500D02*
X3694000Y-6620500D01*
X3644000Y-6570500D02*
X3744000Y-6570500D01*
X3937500Y-4077500D02*
X3937500Y-4177500D01*
X3887500Y-4127500D02*
X3987500Y-4127500D01*
X3948000Y-1650500D02*
X3948000Y-1750500D01*
X3898000Y-1700500D02*
X3998000Y-1700500D01*
X3948000Y-3682500D02*
X3948000Y-3782500D01*
X3898000Y-3732500D02*
X3998000Y-3732500D01*
X3948000Y-4488500D02*
X3948000Y-4588500D01*
X3898000Y-4538500D02*
X3998000Y-4538500D01*
X3948000Y-6520500D02*
X3948000Y-6620500D01*
X3898000Y-6570500D02*
X3998000Y-6570500D01*
X4191500Y-4077500D02*
X4191500Y-4177500D01*
X4141500Y-4127500D02*
X4241500Y-4127500D01*
X4202000Y-1650500D02*
X4202000Y-1750500D01*
X4152000Y-1700500D02*
X4252000Y-1700500D01*
X4202000Y-3682500D02*
X4202000Y-3782500D01*
X4152000Y-3732500D02*
X4252000Y-3732500D01*
X4202000Y-4488500D02*
X4202000Y-4588500D01*
X4152000Y-4538500D02*
X4252000Y-4538500D01*
X4202000Y-6520500D02*
X4202000Y-6620500D01*
X4152000Y-6570500D02*
X4252000Y-6570500D01*
X4456000Y-1650500D02*
X4456000Y-1750500D01*
X4406000Y-1700500D02*
X4506000Y-1700500D01*
X4456000Y-3682500D02*
X4456000Y-3782500D01*
X4406000Y-3732500D02*
X4506000Y-3732500D01*
X4456000Y-4488500D02*
X4456000Y-4588500D01*
X4406000Y-4538500D02*
X4506000Y-4538500D01*
X4456000Y-6520500D02*
X4456000Y-6620500D01*
X4406000Y-6570500D02*
X4506000Y-6570500D01*
X4710000Y-1650500D02*
X4710000Y-1750500D01*
X4660000Y-1700500D02*
X4760000Y-1700500D01*
X4710000Y-3682500D02*
X4710000Y-3782500D01*
X4660000Y-3732500D02*
X4760000Y-3732500D01*
X4710000Y-4488500D02*
X4710000Y-4588500D01*
X4660000Y-4538500D02*
X4760000Y-4538500D01*
X4710000Y-6520500D02*
X4710000Y-6620500D01*
X4660000Y-6570500D02*
X4760000Y-6570500D01*
X4964000Y-1650500D02*
X4964000Y-1750500D01*
X4914000Y-1700500D02*
X5014000Y-1700500D01*
X4964000Y-3682500D02*
X4964000Y-3782500D01*
X4914000Y-3732500D02*
X5014000Y-3732500D01*
X4964000Y-4488500D02*
X4964000Y-4588500D01*
X4914000Y-4538500D02*
X5014000Y-4538500D01*
X4964000Y-6520500D02*
X4964000Y-6620500D01*
X4914000Y-6570500D02*
X5014000Y-6570500D01*
X5218000Y-1650500D02*
X5218000Y-1750500D01*
X5168000Y-1700500D02*
X5268000Y-1700500D01*
X5218000Y-3682500D02*
X5218000Y-3782500D01*
X5168000Y-3732500D02*
X5268000Y-3732500D01*
X5218000Y-4488500D02*
X5218000Y-4588500D01*
X5168000Y-4538500D02*
X5268000Y-4538500D01*
X5218000Y-6520500D02*
X5218000Y-6620500D01*
X5168000Y-6570500D02*
X5268000Y-6570500D01*
X5472000Y-1650500D02*
X5472000Y-1750500D01*
X5422000Y-1700500D02*
X5522000Y-1700500D01*
X5472000Y-3682500D02*
X5472000Y-3782500D01*
X5422000Y-3732500D02*
X5522000Y-3732500D01*
X5472000Y-4488500D02*
X5472000Y-4588500D01*
X5422000Y-4538500D02*
X5522000Y-4538500D01*
X5472000Y-6520500D02*
X5472000Y-6620500D01*
X5422000Y-6570500D02*
X5522000Y-6570500D01*
X5726000Y-1650500D02*
X5726000Y-1750500D01*
X5676000Y-1700500D02*
X5776000Y-1700500D01*
X5726000Y-3682500D02*
X5726000Y-3782500D01*
X5676000Y-3732500D02*
X5776000Y-3732500D01*
X5726000Y-4488500D02*
X5726000Y-4588500D01*
X5676000Y-4538500D02*
X5776000Y-4538500D01*
X5726000Y-6520500D02*
X5726000Y-6620500D01*
X5676000Y-6570500D02*
X5776000Y-6570500D01*
X5980000Y-1650500D02*
X5980000Y-1750500D01*
X5930000Y-1700500D02*
X6030000Y-1700500D01*
X5980000Y-3682500D02*
X5980000Y-3782500D01*
X5930000Y-3732500D02*
X6030000Y-3732500D01*
X5980000Y-4488500D02*
X5980000Y-4588500D01*
X5930000Y-4538500D02*
X6030000Y-4538500D01*
X5980000Y-6520500D02*
X5980000Y-6620500D01*
X5930000Y-6570500D02*
X6030000Y-6570500D01*
X6234000Y-1650500D02*
X6234000Y-1750500D01*
X6184000Y-1700500D02*
X6284000Y-1700500D01*
X6234000Y-3682500D02*
X6234000Y-3782500D01*
X6184000Y-3732500D02*
X6284000Y-3732500D01*
X6234000Y-4488500D02*
X6234000Y-4588500D01*
X6184000Y-4538500D02*
X6284000Y-4538500D01*
X6234000Y-6520500D02*
X6234000Y-6620500D01*
X6184000Y-6570500D02*
X6284000Y-6570500D01*
D12*
X687427Y-467427D02*
X687427Y-382573D01*
X602573Y-382573D01*
X602573Y-467427D01*
X687427Y-467427D01*
X687427Y-967427D02*
X687427Y-882573D01*
X602573Y-882573D01*
X602573Y-967427D01*
X687427Y-967427D01*
X1037427Y-467427D02*
X1037427Y-382573D01*
X952573Y-382573D01*
X952573Y-467427D01*
X1037427Y-467427D01*
X1037427Y-967427D02*
X1037427Y-882573D01*
X952573Y-882573D01*
X952573Y-967427D01*
X1037427Y-967427D01*
X5172427Y-482427D02*
X5172427Y-397573D01*
X5087573Y-397573D01*
X5087573Y-482427D01*
X5172427Y-482427D01*
X5172427Y-982427D02*
X5172427Y-897573D01*
X5087573Y-897573D01*
X5087573Y-982427D01*
X5172427Y-982427D01*
X5522427Y-482427D02*
X5522427Y-397573D01*
X5437573Y-397573D01*
X5437573Y-482427D01*
X5522427Y-482427D01*
X5522427Y-982427D02*
X5522427Y-897573D01*
X5437573Y-897573D01*
X5437573Y-982427D01*
X5522427Y-982427D01*
X5872427Y-482427D02*
X5872427Y-397573D01*
X5787573Y-397573D01*
X5787573Y-482427D01*
X5872427Y-482427D01*
X5872427Y-982427D02*
X5872427Y-897573D01*
X5787573Y-897573D01*
X5787573Y-982427D01*
X5872427Y-982427D01*
D13*
X0Y-110000D02*
X110000Y0D01*
X0Y110000D01*
X-110000Y0D01*
X0Y-110000D01*
X0Y-7460000D02*
X110000Y-7350000D01*
X0Y-7240000D01*
X-110000Y-7350000D01*
X0Y-7460000D01*
X6450000Y-110000D02*
X6560000Y0D01*
X6450000Y110000D01*
X6340000Y0D01*
X6450000Y-110000D01*
X6450000Y-7460000D02*
X6560000Y-7350000D01*
X6450000Y-7240000D01*
X6340000Y-7350000D01*
X6450000Y-7460000D01*
D11*
X-44223Y-7966484D02*
X-44223Y-7766484D01*
X-44223Y-7766484D02*
X3396Y-7766484D01*
X3396Y-7766484D02*
X31967Y-7776008D01*
X31967Y-7776008D02*
X51015Y-7795055D01*
X51015Y-7795055D02*
X60539Y-7814103D01*
X60539Y-7814103D02*
X70063Y-7852198D01*
X70063Y-7852198D02*
X70063Y-7880769D01*
X70063Y-7880769D02*
X60539Y-7918865D01*
X60539Y-7918865D02*
X51015Y-7937912D01*
X51015Y-7937912D02*
X31967Y-7956960D01*
X31967Y-7956960D02*
X3396Y-7966484D01*
X3396Y-7966484D02*
X-44223Y-7966484D01*
X155777Y-7966484D02*
X155777Y-7833150D01*
X155777Y-7871246D02*
X165301Y-7852198D01*
X165301Y-7852198D02*
X174824Y-7842674D01*
X174824Y-7842674D02*
X193872Y-7833150D01*
X193872Y-7833150D02*
X212920Y-7833150D01*
X279586Y-7966484D02*
X279586Y-7833150D01*
X279586Y-7766484D02*
X270063Y-7776008D01*
X270063Y-7776008D02*
X279586Y-7785531D01*
X279586Y-7785531D02*
X289110Y-7776008D01*
X289110Y-7776008D02*
X279586Y-7766484D01*
X279586Y-7766484D02*
X279586Y-7785531D01*
X403396Y-7966484D02*
X384348Y-7956960D01*
X384348Y-7956960D02*
X374824Y-7937912D01*
X374824Y-7937912D02*
X374824Y-7766484D01*
X508158Y-7966484D02*
X489110Y-7956960D01*
X489110Y-7956960D02*
X479586Y-7937912D01*
X479586Y-7937912D02*
X479586Y-7766484D01*
X736729Y-7966484D02*
X736729Y-7766484D01*
X736729Y-7766484D02*
X803396Y-7909341D01*
X803396Y-7909341D02*
X870062Y-7766484D01*
X870062Y-7766484D02*
X870062Y-7966484D01*
X1051015Y-7966484D02*
X1051015Y-7861722D01*
X1051015Y-7861722D02*
X1041491Y-7842674D01*
X1041491Y-7842674D02*
X1022443Y-7833150D01*
X1022443Y-7833150D02*
X984348Y-7833150D01*
X984348Y-7833150D02*
X965301Y-7842674D01*
X1051015Y-7956960D02*
X1031967Y-7966484D01*
X1031967Y-7966484D02*
X984348Y-7966484D01*
X984348Y-7966484D02*
X965301Y-7956960D01*
X965301Y-7956960D02*
X955777Y-7937912D01*
X955777Y-7937912D02*
X955777Y-7918865D01*
X955777Y-7918865D02*
X965301Y-7899817D01*
X965301Y-7899817D02*
X984348Y-7890293D01*
X984348Y-7890293D02*
X1031967Y-7890293D01*
X1031967Y-7890293D02*
X1051015Y-7880769D01*
X1146253Y-7833150D02*
X1146253Y-8033150D01*
X1146253Y-7842674D02*
X1165301Y-7833150D01*
X1165301Y-7833150D02*
X1203396Y-7833150D01*
X1203396Y-7833150D02*
X1222444Y-7842674D01*
X1222444Y-7842674D02*
X1231967Y-7852198D01*
X1231967Y-7852198D02*
X1241491Y-7871246D01*
X1241491Y-7871246D02*
X1241491Y-7928388D01*
X1241491Y-7928388D02*
X1231967Y-7947436D01*
X1231967Y-7947436D02*
X1222444Y-7956960D01*
X1222444Y-7956960D02*
X1203396Y-7966484D01*
X1203396Y-7966484D02*
X1165301Y-7966484D01*
X1165301Y-7966484D02*
X1146253Y-7956960D01*
X1327205Y-7947436D02*
X1336729Y-7956960D01*
X1336729Y-7956960D02*
X1327205Y-7966484D01*
X1327205Y-7966484D02*
X1317682Y-7956960D01*
X1317682Y-7956960D02*
X1327205Y-7947436D01*
X1327205Y-7947436D02*
X1327205Y-7966484D01*
X1327205Y-7842674D02*
X1336729Y-7852198D01*
X1336729Y-7852198D02*
X1327205Y-7861722D01*
X1327205Y-7861722D02*
X1317682Y-7852198D01*
X1317682Y-7852198D02*
X1327205Y-7842674D01*
X1327205Y-7842674D02*
X1327205Y-7861722D01*
D10*
X-335000Y-8280000D02*
X-305000Y-8310000D01*
X-305000Y-8280000D02*
X-335000Y-8310000D01*
D11*
X-6128Y-8186484D02*
X12920Y-8186484D01*
X12920Y-8186484D02*
X31967Y-8196008D01*
X31967Y-8196008D02*
X41491Y-8205531D01*
X41491Y-8205531D02*
X51015Y-8224579D01*
X51015Y-8224579D02*
X60539Y-8262674D01*
X60539Y-8262674D02*
X60539Y-8310293D01*
X60539Y-8310293D02*
X51015Y-8348388D01*
X51015Y-8348388D02*
X41491Y-8367436D01*
X41491Y-8367436D02*
X31967Y-8376960D01*
X31967Y-8376960D02*
X12920Y-8386484D01*
X12920Y-8386484D02*
X-6128Y-8386484D01*
X-6128Y-8386484D02*
X-25175Y-8376960D01*
X-25175Y-8376960D02*
X-34699Y-8367436D01*
X-34699Y-8367436D02*
X-44223Y-8348388D01*
X-44223Y-8348388D02*
X-53747Y-8310293D01*
X-53747Y-8310293D02*
X-53747Y-8262674D01*
X-53747Y-8262674D02*
X-44223Y-8224579D01*
X-44223Y-8224579D02*
X-34699Y-8205531D01*
X-34699Y-8205531D02*
X-25175Y-8196008D01*
X-25175Y-8196008D02*
X-6128Y-8186484D01*
X146253Y-8367436D02*
X155777Y-8376960D01*
X155777Y-8376960D02*
X146253Y-8386484D01*
X146253Y-8386484D02*
X136729Y-8376960D01*
X136729Y-8376960D02*
X146253Y-8367436D01*
X146253Y-8367436D02*
X146253Y-8386484D01*
X222443Y-8186484D02*
X346253Y-8186484D01*
X346253Y-8186484D02*
X279586Y-8262674D01*
X279586Y-8262674D02*
X308158Y-8262674D01*
X308158Y-8262674D02*
X327205Y-8272198D01*
X327205Y-8272198D02*
X336729Y-8281722D01*
X336729Y-8281722D02*
X346253Y-8300769D01*
X346253Y-8300769D02*
X346253Y-8348388D01*
X346253Y-8348388D02*
X336729Y-8367436D01*
X336729Y-8367436D02*
X327205Y-8376960D01*
X327205Y-8376960D02*
X308158Y-8386484D01*
X308158Y-8386484D02*
X251015Y-8386484D01*
X251015Y-8386484D02*
X231967Y-8376960D01*
X231967Y-8376960D02*
X222443Y-8367436D01*
X470062Y-8186484D02*
X489110Y-8186484D01*
X489110Y-8186484D02*
X508158Y-8196008D01*
X508158Y-8196008D02*
X517682Y-8205531D01*
X517682Y-8205531D02*
X527205Y-8224579D01*
X527205Y-8224579D02*
X536729Y-8262674D01*
X536729Y-8262674D02*
X536729Y-8310293D01*
X536729Y-8310293D02*
X527205Y-8348388D01*
X527205Y-8348388D02*
X517682Y-8367436D01*
X517682Y-8367436D02*
X508158Y-8376960D01*
X508158Y-8376960D02*
X489110Y-8386484D01*
X489110Y-8386484D02*
X470062Y-8386484D01*
X470062Y-8386484D02*
X451015Y-8376960D01*
X451015Y-8376960D02*
X441491Y-8367436D01*
X441491Y-8367436D02*
X431967Y-8348388D01*
X431967Y-8348388D02*
X422443Y-8310293D01*
X422443Y-8310293D02*
X422443Y-8262674D01*
X422443Y-8262674D02*
X431967Y-8224579D01*
X431967Y-8224579D02*
X441491Y-8205531D01*
X441491Y-8205531D02*
X451015Y-8196008D01*
X451015Y-8196008D02*
X470062Y-8186484D01*
X660539Y-8186484D02*
X679586Y-8186484D01*
X679586Y-8186484D02*
X698634Y-8196008D01*
X698634Y-8196008D02*
X708158Y-8205531D01*
X708158Y-8205531D02*
X717682Y-8224579D01*
X717682Y-8224579D02*
X727205Y-8262674D01*
X727205Y-8262674D02*
X727205Y-8310293D01*
X727205Y-8310293D02*
X717682Y-8348388D01*
X717682Y-8348388D02*
X708158Y-8367436D01*
X708158Y-8367436D02*
X698634Y-8376960D01*
X698634Y-8376960D02*
X679586Y-8386484D01*
X679586Y-8386484D02*
X660539Y-8386484D01*
X660539Y-8386484D02*
X641491Y-8376960D01*
X641491Y-8376960D02*
X631967Y-8367436D01*
X631967Y-8367436D02*
X622444Y-8348388D01*
X622444Y-8348388D02*
X612920Y-8310293D01*
X612920Y-8310293D02*
X612920Y-8262674D01*
X612920Y-8262674D02*
X622444Y-8224579D01*
X622444Y-8224579D02*
X631967Y-8205531D01*
X631967Y-8205531D02*
X641491Y-8196008D01*
X641491Y-8196008D02*
X660539Y-8186484D01*
X812920Y-8386484D02*
X812920Y-8253150D01*
X812920Y-8272198D02*
X822443Y-8262674D01*
X822443Y-8262674D02*
X841491Y-8253150D01*
X841491Y-8253150D02*
X870063Y-8253150D01*
X870063Y-8253150D02*
X889110Y-8262674D01*
X889110Y-8262674D02*
X898634Y-8281722D01*
X898634Y-8281722D02*
X898634Y-8386484D01*
X898634Y-8281722D02*
X908158Y-8262674D01*
X908158Y-8262674D02*
X927205Y-8253150D01*
X927205Y-8253150D02*
X955777Y-8253150D01*
X955777Y-8253150D02*
X974824Y-8262674D01*
X974824Y-8262674D02*
X984348Y-8281722D01*
X984348Y-8281722D02*
X984348Y-8386484D01*
X1079586Y-8386484D02*
X1079586Y-8253150D01*
X1079586Y-8272198D02*
X1089110Y-8262674D01*
X1089110Y-8262674D02*
X1108158Y-8253150D01*
X1108158Y-8253150D02*
X1136729Y-8253150D01*
X1136729Y-8253150D02*
X1155777Y-8262674D01*
X1155777Y-8262674D02*
X1165301Y-8281722D01*
X1165301Y-8281722D02*
X1165301Y-8386484D01*
X1165301Y-8281722D02*
X1174825Y-8262674D01*
X1174825Y-8262674D02*
X1193872Y-8253150D01*
X1193872Y-8253150D02*
X1222444Y-8253150D01*
X1222444Y-8253150D02*
X1241491Y-8262674D01*
X1241491Y-8262674D02*
X1251015Y-8281722D01*
X1251015Y-8281722D02*
X1251015Y-8386484D01*
X1641491Y-8176960D02*
X1470063Y-8434103D01*
X1898634Y-8186484D02*
X1917682Y-8186484D01*
X1917682Y-8186484D02*
X1936729Y-8196008D01*
X1936729Y-8196008D02*
X1946253Y-8205531D01*
X1946253Y-8205531D02*
X1955777Y-8224579D01*
X1955777Y-8224579D02*
X1965301Y-8262674D01*
X1965301Y-8262674D02*
X1965301Y-8310293D01*
X1965301Y-8310293D02*
X1955777Y-8348388D01*
X1955777Y-8348388D02*
X1946253Y-8367436D01*
X1946253Y-8367436D02*
X1936729Y-8376960D01*
X1936729Y-8376960D02*
X1917682Y-8386484D01*
X1917682Y-8386484D02*
X1898634Y-8386484D01*
X1898634Y-8386484D02*
X1879586Y-8376960D01*
X1879586Y-8376960D02*
X1870063Y-8367436D01*
X1870063Y-8367436D02*
X1860539Y-8348388D01*
X1860539Y-8348388D02*
X1851015Y-8310293D01*
X1851015Y-8310293D02*
X1851015Y-8262674D01*
X1851015Y-8262674D02*
X1860539Y-8224579D01*
X1860539Y-8224579D02*
X1870063Y-8205531D01*
X1870063Y-8205531D02*
X1879586Y-8196008D01*
X1879586Y-8196008D02*
X1898634Y-8186484D01*
X2051015Y-8367436D02*
X2060539Y-8376960D01*
X2060539Y-8376960D02*
X2051015Y-8386484D01*
X2051015Y-8386484D02*
X2041491Y-8376960D01*
X2041491Y-8376960D02*
X2051015Y-8367436D01*
X2051015Y-8367436D02*
X2051015Y-8386484D01*
X2184348Y-8186484D02*
X2203396Y-8186484D01*
X2203396Y-8186484D02*
X2222444Y-8196008D01*
X2222444Y-8196008D02*
X2231968Y-8205531D01*
X2231968Y-8205531D02*
X2241491Y-8224579D01*
X2241491Y-8224579D02*
X2251015Y-8262674D01*
X2251015Y-8262674D02*
X2251015Y-8310293D01*
X2251015Y-8310293D02*
X2241491Y-8348388D01*
X2241491Y-8348388D02*
X2231968Y-8367436D01*
X2231968Y-8367436D02*
X2222444Y-8376960D01*
X2222444Y-8376960D02*
X2203396Y-8386484D01*
X2203396Y-8386484D02*
X2184348Y-8386484D01*
X2184348Y-8386484D02*
X2165301Y-8376960D01*
X2165301Y-8376960D02*
X2155777Y-8367436D01*
X2155777Y-8367436D02*
X2146253Y-8348388D01*
X2146253Y-8348388D02*
X2136729Y-8310293D01*
X2136729Y-8310293D02*
X2136729Y-8262674D01*
X2136729Y-8262674D02*
X2146253Y-8224579D01*
X2146253Y-8224579D02*
X2155777Y-8205531D01*
X2155777Y-8205531D02*
X2165301Y-8196008D01*
X2165301Y-8196008D02*
X2184348Y-8186484D01*
X2441491Y-8386484D02*
X2327206Y-8386484D01*
X2384348Y-8386484D02*
X2384348Y-8186484D01*
X2384348Y-8186484D02*
X2365301Y-8215055D01*
X2365301Y-8215055D02*
X2346253Y-8234103D01*
X2346253Y-8234103D02*
X2327206Y-8243627D01*
X2631968Y-8386484D02*
X2517682Y-8386484D01*
X2574825Y-8386484D02*
X2574825Y-8186484D01*
X2574825Y-8186484D02*
X2555777Y-8215055D01*
X2555777Y-8215055D02*
X2536729Y-8234103D01*
X2536729Y-8234103D02*
X2517682Y-8243627D01*
X2746253Y-8272198D02*
X2727206Y-8262674D01*
X2727206Y-8262674D02*
X2717682Y-8253150D01*
X2717682Y-8253150D02*
X2708158Y-8234103D01*
X2708158Y-8234103D02*
X2708158Y-8224579D01*
X2708158Y-8224579D02*
X2717682Y-8205531D01*
X2717682Y-8205531D02*
X2727206Y-8196008D01*
X2727206Y-8196008D02*
X2746253Y-8186484D01*
X2746253Y-8186484D02*
X2784349Y-8186484D01*
X2784349Y-8186484D02*
X2803396Y-8196008D01*
X2803396Y-8196008D02*
X2812920Y-8205531D01*
X2812920Y-8205531D02*
X2822444Y-8224579D01*
X2822444Y-8224579D02*
X2822444Y-8234103D01*
X2822444Y-8234103D02*
X2812920Y-8253150D01*
X2812920Y-8253150D02*
X2803396Y-8262674D01*
X2803396Y-8262674D02*
X2784349Y-8272198D01*
X2784349Y-8272198D02*
X2746253Y-8272198D01*
X2746253Y-8272198D02*
X2727206Y-8281722D01*
X2727206Y-8281722D02*
X2717682Y-8291246D01*
X2717682Y-8291246D02*
X2708158Y-8310293D01*
X2708158Y-8310293D02*
X2708158Y-8348388D01*
X2708158Y-8348388D02*
X2717682Y-8367436D01*
X2717682Y-8367436D02*
X2727206Y-8376960D01*
X2727206Y-8376960D02*
X2746253Y-8386484D01*
X2746253Y-8386484D02*
X2784349Y-8386484D01*
X2784349Y-8386484D02*
X2803396Y-8376960D01*
X2803396Y-8376960D02*
X2812920Y-8367436D01*
X2812920Y-8367436D02*
X2822444Y-8348388D01*
X2822444Y-8348388D02*
X2822444Y-8310293D01*
X2822444Y-8310293D02*
X2812920Y-8291246D01*
X2812920Y-8291246D02*
X2803396Y-8281722D01*
X2803396Y-8281722D02*
X2784349Y-8272198D01*
X2898634Y-8186484D02*
X2898634Y-8224579D01*
X2974825Y-8186484D02*
X2974825Y-8224579D01*
X3270063Y-8462674D02*
X3260539Y-8453150D01*
X3260539Y-8453150D02*
X3241491Y-8424579D01*
X3241491Y-8424579D02*
X3231968Y-8405531D01*
X3231968Y-8405531D02*
X3222444Y-8376960D01*
X3222444Y-8376960D02*
X3212920Y-8329341D01*
X3212920Y-8329341D02*
X3212920Y-8291246D01*
X3212920Y-8291246D02*
X3222444Y-8243627D01*
X3222444Y-8243627D02*
X3231968Y-8215055D01*
X3231968Y-8215055D02*
X3241491Y-8196008D01*
X3241491Y-8196008D02*
X3260539Y-8167436D01*
X3260539Y-8167436D02*
X3270063Y-8157912D01*
X3374825Y-8272198D02*
X3355777Y-8262674D01*
X3355777Y-8262674D02*
X3346253Y-8253150D01*
X3346253Y-8253150D02*
X3336729Y-8234103D01*
X3336729Y-8234103D02*
X3336729Y-8224579D01*
X3336729Y-8224579D02*
X3346253Y-8205531D01*
X3346253Y-8205531D02*
X3355777Y-8196008D01*
X3355777Y-8196008D02*
X3374825Y-8186484D01*
X3374825Y-8186484D02*
X3412920Y-8186484D01*
X3412920Y-8186484D02*
X3431968Y-8196008D01*
X3431968Y-8196008D02*
X3441491Y-8205531D01*
X3441491Y-8205531D02*
X3451015Y-8224579D01*
X3451015Y-8224579D02*
X3451015Y-8234103D01*
X3451015Y-8234103D02*
X3441491Y-8253150D01*
X3441491Y-8253150D02*
X3431968Y-8262674D01*
X3431968Y-8262674D02*
X3412920Y-8272198D01*
X3412920Y-8272198D02*
X3374825Y-8272198D01*
X3374825Y-8272198D02*
X3355777Y-8281722D01*
X3355777Y-8281722D02*
X3346253Y-8291246D01*
X3346253Y-8291246D02*
X3336729Y-8310293D01*
X3336729Y-8310293D02*
X3336729Y-8348388D01*
X3336729Y-8348388D02*
X3346253Y-8367436D01*
X3346253Y-8367436D02*
X3355777Y-8376960D01*
X3355777Y-8376960D02*
X3374825Y-8386484D01*
X3374825Y-8386484D02*
X3412920Y-8386484D01*
X3412920Y-8386484D02*
X3431968Y-8376960D01*
X3431968Y-8376960D02*
X3441491Y-8367436D01*
X3441491Y-8367436D02*
X3451015Y-8348388D01*
X3451015Y-8348388D02*
X3451015Y-8310293D01*
X3451015Y-8310293D02*
X3441491Y-8291246D01*
X3441491Y-8291246D02*
X3431968Y-8281722D01*
X3431968Y-8281722D02*
X3412920Y-8272198D01*
X3689110Y-8386484D02*
X3689110Y-8186484D01*
X3774825Y-8386484D02*
X3774825Y-8281722D01*
X3774825Y-8281722D02*
X3765301Y-8262674D01*
X3765301Y-8262674D02*
X3746253Y-8253150D01*
X3746253Y-8253150D02*
X3717682Y-8253150D01*
X3717682Y-8253150D02*
X3698634Y-8262674D01*
X3698634Y-8262674D02*
X3689110Y-8272198D01*
X3898634Y-8386484D02*
X3879587Y-8376960D01*
X3879587Y-8376960D02*
X3870063Y-8367436D01*
X3870063Y-8367436D02*
X3860539Y-8348388D01*
X3860539Y-8348388D02*
X3860539Y-8291246D01*
X3860539Y-8291246D02*
X3870063Y-8272198D01*
X3870063Y-8272198D02*
X3879587Y-8262674D01*
X3879587Y-8262674D02*
X3898634Y-8253150D01*
X3898634Y-8253150D02*
X3927206Y-8253150D01*
X3927206Y-8253150D02*
X3946253Y-8262674D01*
X3946253Y-8262674D02*
X3955777Y-8272198D01*
X3955777Y-8272198D02*
X3965301Y-8291246D01*
X3965301Y-8291246D02*
X3965301Y-8348388D01*
X3965301Y-8348388D02*
X3955777Y-8367436D01*
X3955777Y-8367436D02*
X3946253Y-8376960D01*
X3946253Y-8376960D02*
X3927206Y-8386484D01*
X3927206Y-8386484D02*
X3898634Y-8386484D01*
X4079587Y-8386484D02*
X4060539Y-8376960D01*
X4060539Y-8376960D02*
X4051015Y-8357912D01*
X4051015Y-8357912D02*
X4051015Y-8186484D01*
X4231968Y-8376960D02*
X4212920Y-8386484D01*
X4212920Y-8386484D02*
X4174825Y-8386484D01*
X4174825Y-8386484D02*
X4155777Y-8376960D01*
X4155777Y-8376960D02*
X4146253Y-8357912D01*
X4146253Y-8357912D02*
X4146253Y-8281722D01*
X4146253Y-8281722D02*
X4155777Y-8262674D01*
X4155777Y-8262674D02*
X4174825Y-8253150D01*
X4174825Y-8253150D02*
X4212920Y-8253150D01*
X4212920Y-8253150D02*
X4231968Y-8262674D01*
X4231968Y-8262674D02*
X4241492Y-8281722D01*
X4241492Y-8281722D02*
X4241492Y-8300769D01*
X4241492Y-8300769D02*
X4146253Y-8319817D01*
X4317682Y-8376960D02*
X4336730Y-8386484D01*
X4336730Y-8386484D02*
X4374825Y-8386484D01*
X4374825Y-8386484D02*
X4393873Y-8376960D01*
X4393873Y-8376960D02*
X4403396Y-8357912D01*
X4403396Y-8357912D02*
X4403396Y-8348388D01*
X4403396Y-8348388D02*
X4393873Y-8329341D01*
X4393873Y-8329341D02*
X4374825Y-8319817D01*
X4374825Y-8319817D02*
X4346253Y-8319817D01*
X4346253Y-8319817D02*
X4327206Y-8310293D01*
X4327206Y-8310293D02*
X4317682Y-8291246D01*
X4317682Y-8291246D02*
X4317682Y-8281722D01*
X4317682Y-8281722D02*
X4327206Y-8262674D01*
X4327206Y-8262674D02*
X4346253Y-8253150D01*
X4346253Y-8253150D02*
X4374825Y-8253150D01*
X4374825Y-8253150D02*
X4393873Y-8262674D01*
X4470063Y-8462674D02*
X4479587Y-8453150D01*
X4479587Y-8453150D02*
X4498634Y-8424579D01*
X4498634Y-8424579D02*
X4508158Y-8405531D01*
X4508158Y-8405531D02*
X4517682Y-8376960D01*
X4517682Y-8376960D02*
X4527206Y-8329341D01*
X4527206Y-8329341D02*
X4527206Y-8291246D01*
X4527206Y-8291246D02*
X4517682Y-8243627D01*
X4517682Y-8243627D02*
X4508158Y-8215055D01*
X4508158Y-8215055D02*
X4498634Y-8196008D01*
X4498634Y-8196008D02*
X4479587Y-8167436D01*
X4479587Y-8167436D02*
X4470063Y-8157912D01*
D10*
X-305000Y-8559000D02*
G75*
G02*
X-345000Y-8559000I-20000J0D01*
G01*
X-345000Y-8559000D02*
G75*
G02*
X-305000Y-8559000I20000J0D01*
G01*
D11*
X-6128Y-8450484D02*
X12920Y-8450484D01*
X12920Y-8450484D02*
X31967Y-8460008D01*
X31967Y-8460008D02*
X41491Y-8469531D01*
X41491Y-8469531D02*
X51015Y-8488579D01*
X51015Y-8488579D02*
X60539Y-8526674D01*
X60539Y-8526674D02*
X60539Y-8574293D01*
X60539Y-8574293D02*
X51015Y-8612389D01*
X51015Y-8612389D02*
X41491Y-8631436D01*
X41491Y-8631436D02*
X31967Y-8640960D01*
X31967Y-8640960D02*
X12920Y-8650484D01*
X12920Y-8650484D02*
X-6128Y-8650484D01*
X-6128Y-8650484D02*
X-25175Y-8640960D01*
X-25175Y-8640960D02*
X-34699Y-8631436D01*
X-34699Y-8631436D02*
X-44223Y-8612389D01*
X-44223Y-8612389D02*
X-53747Y-8574293D01*
X-53747Y-8574293D02*
X-53747Y-8526674D01*
X-53747Y-8526674D02*
X-44223Y-8488579D01*
X-44223Y-8488579D02*
X-34699Y-8469531D01*
X-34699Y-8469531D02*
X-25175Y-8460008D01*
X-25175Y-8460008D02*
X-6128Y-8450484D01*
X146253Y-8631436D02*
X155777Y-8640960D01*
X155777Y-8640960D02*
X146253Y-8650484D01*
X146253Y-8650484D02*
X136729Y-8640960D01*
X136729Y-8640960D02*
X146253Y-8631436D01*
X146253Y-8631436D02*
X146253Y-8650484D01*
X327205Y-8517150D02*
X327205Y-8650484D01*
X279586Y-8440960D02*
X231967Y-8583817D01*
X231967Y-8583817D02*
X355777Y-8583817D01*
X470062Y-8450484D02*
X489110Y-8450484D01*
X489110Y-8450484D02*
X508158Y-8460008D01*
X508158Y-8460008D02*
X517682Y-8469531D01*
X517682Y-8469531D02*
X527205Y-8488579D01*
X527205Y-8488579D02*
X536729Y-8526674D01*
X536729Y-8526674D02*
X536729Y-8574293D01*
X536729Y-8574293D02*
X527205Y-8612389D01*
X527205Y-8612389D02*
X517682Y-8631436D01*
X517682Y-8631436D02*
X508158Y-8640960D01*
X508158Y-8640960D02*
X489110Y-8650484D01*
X489110Y-8650484D02*
X470062Y-8650484D01*
X470062Y-8650484D02*
X451015Y-8640960D01*
X451015Y-8640960D02*
X441491Y-8631436D01*
X441491Y-8631436D02*
X431967Y-8612389D01*
X431967Y-8612389D02*
X422443Y-8574293D01*
X422443Y-8574293D02*
X422443Y-8526674D01*
X422443Y-8526674D02*
X431967Y-8488579D01*
X431967Y-8488579D02*
X441491Y-8469531D01*
X441491Y-8469531D02*
X451015Y-8460008D01*
X451015Y-8460008D02*
X470062Y-8450484D01*
X660539Y-8450484D02*
X679586Y-8450484D01*
X679586Y-8450484D02*
X698634Y-8460008D01*
X698634Y-8460008D02*
X708158Y-8469531D01*
X708158Y-8469531D02*
X717682Y-8488579D01*
X717682Y-8488579D02*
X727205Y-8526674D01*
X727205Y-8526674D02*
X727205Y-8574293D01*
X727205Y-8574293D02*
X717682Y-8612389D01*
X717682Y-8612389D02*
X708158Y-8631436D01*
X708158Y-8631436D02*
X698634Y-8640960D01*
X698634Y-8640960D02*
X679586Y-8650484D01*
X679586Y-8650484D02*
X660539Y-8650484D01*
X660539Y-8650484D02*
X641491Y-8640960D01*
X641491Y-8640960D02*
X631967Y-8631436D01*
X631967Y-8631436D02*
X622444Y-8612389D01*
X622444Y-8612389D02*
X612920Y-8574293D01*
X612920Y-8574293D02*
X612920Y-8526674D01*
X612920Y-8526674D02*
X622444Y-8488579D01*
X622444Y-8488579D02*
X631967Y-8469531D01*
X631967Y-8469531D02*
X641491Y-8460008D01*
X641491Y-8460008D02*
X660539Y-8450484D01*
X812920Y-8650484D02*
X812920Y-8517150D01*
X812920Y-8536198D02*
X822443Y-8526674D01*
X822443Y-8526674D02*
X841491Y-8517150D01*
X841491Y-8517150D02*
X870063Y-8517150D01*
X870063Y-8517150D02*
X889110Y-8526674D01*
X889110Y-8526674D02*
X898634Y-8545722D01*
X898634Y-8545722D02*
X898634Y-8650484D01*
X898634Y-8545722D02*
X908158Y-8526674D01*
X908158Y-8526674D02*
X927205Y-8517150D01*
X927205Y-8517150D02*
X955777Y-8517150D01*
X955777Y-8517150D02*
X974824Y-8526674D01*
X974824Y-8526674D02*
X984348Y-8545722D01*
X984348Y-8545722D02*
X984348Y-8650484D01*
X1079586Y-8650484D02*
X1079586Y-8517150D01*
X1079586Y-8536198D02*
X1089110Y-8526674D01*
X1089110Y-8526674D02*
X1108158Y-8517150D01*
X1108158Y-8517150D02*
X1136729Y-8517150D01*
X1136729Y-8517150D02*
X1155777Y-8526674D01*
X1155777Y-8526674D02*
X1165301Y-8545722D01*
X1165301Y-8545722D02*
X1165301Y-8650484D01*
X1165301Y-8545722D02*
X1174825Y-8526674D01*
X1174825Y-8526674D02*
X1193872Y-8517150D01*
X1193872Y-8517150D02*
X1222444Y-8517150D01*
X1222444Y-8517150D02*
X1241491Y-8526674D01*
X1241491Y-8526674D02*
X1251015Y-8545722D01*
X1251015Y-8545722D02*
X1251015Y-8650484D01*
X1641491Y-8440960D02*
X1470063Y-8698103D01*
X1898634Y-8450484D02*
X1917682Y-8450484D01*
X1917682Y-8450484D02*
X1936729Y-8460008D01*
X1936729Y-8460008D02*
X1946253Y-8469531D01*
X1946253Y-8469531D02*
X1955777Y-8488579D01*
X1955777Y-8488579D02*
X1965301Y-8526674D01*
X1965301Y-8526674D02*
X1965301Y-8574293D01*
X1965301Y-8574293D02*
X1955777Y-8612389D01*
X1955777Y-8612389D02*
X1946253Y-8631436D01*
X1946253Y-8631436D02*
X1936729Y-8640960D01*
X1936729Y-8640960D02*
X1917682Y-8650484D01*
X1917682Y-8650484D02*
X1898634Y-8650484D01*
X1898634Y-8650484D02*
X1879586Y-8640960D01*
X1879586Y-8640960D02*
X1870063Y-8631436D01*
X1870063Y-8631436D02*
X1860539Y-8612389D01*
X1860539Y-8612389D02*
X1851015Y-8574293D01*
X1851015Y-8574293D02*
X1851015Y-8526674D01*
X1851015Y-8526674D02*
X1860539Y-8488579D01*
X1860539Y-8488579D02*
X1870063Y-8469531D01*
X1870063Y-8469531D02*
X1879586Y-8460008D01*
X1879586Y-8460008D02*
X1898634Y-8450484D01*
X2051015Y-8631436D02*
X2060539Y-8640960D01*
X2060539Y-8640960D02*
X2051015Y-8650484D01*
X2051015Y-8650484D02*
X2041491Y-8640960D01*
X2041491Y-8640960D02*
X2051015Y-8631436D01*
X2051015Y-8631436D02*
X2051015Y-8650484D01*
X2184348Y-8450484D02*
X2203396Y-8450484D01*
X2203396Y-8450484D02*
X2222444Y-8460008D01*
X2222444Y-8460008D02*
X2231968Y-8469531D01*
X2231968Y-8469531D02*
X2241491Y-8488579D01*
X2241491Y-8488579D02*
X2251015Y-8526674D01*
X2251015Y-8526674D02*
X2251015Y-8574293D01*
X2251015Y-8574293D02*
X2241491Y-8612389D01*
X2241491Y-8612389D02*
X2231968Y-8631436D01*
X2231968Y-8631436D02*
X2222444Y-8640960D01*
X2222444Y-8640960D02*
X2203396Y-8650484D01*
X2203396Y-8650484D02*
X2184348Y-8650484D01*
X2184348Y-8650484D02*
X2165301Y-8640960D01*
X2165301Y-8640960D02*
X2155777Y-8631436D01*
X2155777Y-8631436D02*
X2146253Y-8612389D01*
X2146253Y-8612389D02*
X2136729Y-8574293D01*
X2136729Y-8574293D02*
X2136729Y-8526674D01*
X2136729Y-8526674D02*
X2146253Y-8488579D01*
X2146253Y-8488579D02*
X2155777Y-8469531D01*
X2155777Y-8469531D02*
X2165301Y-8460008D01*
X2165301Y-8460008D02*
X2184348Y-8450484D01*
X2441491Y-8650484D02*
X2327206Y-8650484D01*
X2384348Y-8650484D02*
X2384348Y-8450484D01*
X2384348Y-8450484D02*
X2365301Y-8479055D01*
X2365301Y-8479055D02*
X2346253Y-8498103D01*
X2346253Y-8498103D02*
X2327206Y-8507627D01*
X2622444Y-8450484D02*
X2527206Y-8450484D01*
X2527206Y-8450484D02*
X2517682Y-8545722D01*
X2517682Y-8545722D02*
X2527206Y-8536198D01*
X2527206Y-8536198D02*
X2546253Y-8526674D01*
X2546253Y-8526674D02*
X2593872Y-8526674D01*
X2593872Y-8526674D02*
X2612920Y-8536198D01*
X2612920Y-8536198D02*
X2622444Y-8545722D01*
X2622444Y-8545722D02*
X2631968Y-8564770D01*
X2631968Y-8564770D02*
X2631968Y-8612389D01*
X2631968Y-8612389D02*
X2622444Y-8631436D01*
X2622444Y-8631436D02*
X2612920Y-8640960D01*
X2612920Y-8640960D02*
X2593872Y-8650484D01*
X2593872Y-8650484D02*
X2546253Y-8650484D01*
X2546253Y-8650484D02*
X2527206Y-8640960D01*
X2527206Y-8640960D02*
X2517682Y-8631436D01*
X2698634Y-8450484D02*
X2831967Y-8450484D01*
X2831967Y-8450484D02*
X2746253Y-8650484D01*
X2898634Y-8450484D02*
X2898634Y-8488579D01*
X2974825Y-8450484D02*
X2974825Y-8488579D01*
X3270063Y-8726674D02*
X3260539Y-8717150D01*
X3260539Y-8717150D02*
X3241491Y-8688579D01*
X3241491Y-8688579D02*
X3231968Y-8669531D01*
X3231968Y-8669531D02*
X3222444Y-8640960D01*
X3222444Y-8640960D02*
X3212920Y-8593341D01*
X3212920Y-8593341D02*
X3212920Y-8555246D01*
X3212920Y-8555246D02*
X3222444Y-8507627D01*
X3222444Y-8507627D02*
X3231968Y-8479055D01*
X3231968Y-8479055D02*
X3241491Y-8460008D01*
X3241491Y-8460008D02*
X3260539Y-8431436D01*
X3260539Y-8431436D02*
X3270063Y-8421912D01*
X3451015Y-8650484D02*
X3336729Y-8650484D01*
X3393872Y-8650484D02*
X3393872Y-8450484D01*
X3393872Y-8450484D02*
X3374825Y-8479055D01*
X3374825Y-8479055D02*
X3355777Y-8498103D01*
X3355777Y-8498103D02*
X3336729Y-8507627D01*
X3527206Y-8469531D02*
X3536729Y-8460008D01*
X3536729Y-8460008D02*
X3555777Y-8450484D01*
X3555777Y-8450484D02*
X3603396Y-8450484D01*
X3603396Y-8450484D02*
X3622444Y-8460008D01*
X3622444Y-8460008D02*
X3631968Y-8469531D01*
X3631968Y-8469531D02*
X3641491Y-8488579D01*
X3641491Y-8488579D02*
X3641491Y-8507627D01*
X3641491Y-8507627D02*
X3631968Y-8536198D01*
X3631968Y-8536198D02*
X3517682Y-8650484D01*
X3517682Y-8650484D02*
X3641491Y-8650484D01*
X3708158Y-8450484D02*
X3831968Y-8450484D01*
X3831968Y-8450484D02*
X3765301Y-8526674D01*
X3765301Y-8526674D02*
X3793872Y-8526674D01*
X3793872Y-8526674D02*
X3812920Y-8536198D01*
X3812920Y-8536198D02*
X3822444Y-8545722D01*
X3822444Y-8545722D02*
X3831968Y-8564770D01*
X3831968Y-8564770D02*
X3831968Y-8612389D01*
X3831968Y-8612389D02*
X3822444Y-8631436D01*
X3822444Y-8631436D02*
X3812920Y-8640960D01*
X3812920Y-8640960D02*
X3793872Y-8650484D01*
X3793872Y-8650484D02*
X3736729Y-8650484D01*
X3736729Y-8650484D02*
X3717682Y-8640960D01*
X3717682Y-8640960D02*
X3708158Y-8631436D01*
X4070063Y-8650484D02*
X4070063Y-8450484D01*
X4155777Y-8650484D02*
X4155777Y-8545722D01*
X4155777Y-8545722D02*
X4146253Y-8526674D01*
X4146253Y-8526674D02*
X4127206Y-8517150D01*
X4127206Y-8517150D02*
X4098634Y-8517150D01*
X4098634Y-8517150D02*
X4079587Y-8526674D01*
X4079587Y-8526674D02*
X4070063Y-8536198D01*
X4279587Y-8650484D02*
X4260539Y-8640960D01*
X4260539Y-8640960D02*
X4251015Y-8631436D01*
X4251015Y-8631436D02*
X4241492Y-8612389D01*
X4241492Y-8612389D02*
X4241492Y-8555246D01*
X4241492Y-8555246D02*
X4251015Y-8536198D01*
X4251015Y-8536198D02*
X4260539Y-8526674D01*
X4260539Y-8526674D02*
X4279587Y-8517150D01*
X4279587Y-8517150D02*
X4308158Y-8517150D01*
X4308158Y-8517150D02*
X4327206Y-8526674D01*
X4327206Y-8526674D02*
X4336730Y-8536198D01*
X4336730Y-8536198D02*
X4346253Y-8555246D01*
X4346253Y-8555246D02*
X4346253Y-8612389D01*
X4346253Y-8612389D02*
X4336730Y-8631436D01*
X4336730Y-8631436D02*
X4327206Y-8640960D01*
X4327206Y-8640960D02*
X4308158Y-8650484D01*
X4308158Y-8650484D02*
X4279587Y-8650484D01*
X4460539Y-8650484D02*
X4441492Y-8640960D01*
X4441492Y-8640960D02*
X4431968Y-8621912D01*
X4431968Y-8621912D02*
X4431968Y-8450484D01*
X4612920Y-8640960D02*
X4593873Y-8650484D01*
X4593873Y-8650484D02*
X4555777Y-8650484D01*
X4555777Y-8650484D02*
X4536730Y-8640960D01*
X4536730Y-8640960D02*
X4527206Y-8621912D01*
X4527206Y-8621912D02*
X4527206Y-8545722D01*
X4527206Y-8545722D02*
X4536730Y-8526674D01*
X4536730Y-8526674D02*
X4555777Y-8517150D01*
X4555777Y-8517150D02*
X4593873Y-8517150D01*
X4593873Y-8517150D02*
X4612920Y-8526674D01*
X4612920Y-8526674D02*
X4622444Y-8545722D01*
X4622444Y-8545722D02*
X4622444Y-8564770D01*
X4622444Y-8564770D02*
X4527206Y-8583817D01*
X4698634Y-8640960D02*
X4717682Y-8650484D01*
X4717682Y-8650484D02*
X4755777Y-8650484D01*
X4755777Y-8650484D02*
X4774825Y-8640960D01*
X4774825Y-8640960D02*
X4784349Y-8621912D01*
X4784349Y-8621912D02*
X4784349Y-8612389D01*
X4784349Y-8612389D02*
X4774825Y-8593341D01*
X4774825Y-8593341D02*
X4755777Y-8583817D01*
X4755777Y-8583817D02*
X4727206Y-8583817D01*
X4727206Y-8583817D02*
X4708158Y-8574293D01*
X4708158Y-8574293D02*
X4698634Y-8555246D01*
X4698634Y-8555246D02*
X4698634Y-8545722D01*
X4698634Y-8545722D02*
X4708158Y-8526674D01*
X4708158Y-8526674D02*
X4727206Y-8517150D01*
X4727206Y-8517150D02*
X4755777Y-8517150D01*
X4755777Y-8517150D02*
X4774825Y-8526674D01*
X4851015Y-8726674D02*
X4860539Y-8717150D01*
X4860539Y-8717150D02*
X4879587Y-8688579D01*
X4879587Y-8688579D02*
X4889111Y-8669531D01*
X4889111Y-8669531D02*
X4898634Y-8640960D01*
X4898634Y-8640960D02*
X4908158Y-8593341D01*
X4908158Y-8593341D02*
X4908158Y-8555246D01*
X4908158Y-8555246D02*
X4898634Y-8507627D01*
X4898634Y-8507627D02*
X4889111Y-8479055D01*
X4889111Y-8479055D02*
X4879587Y-8460008D01*
X4879587Y-8460008D02*
X4860539Y-8431436D01*
X4860539Y-8431436D02*
X4851015Y-8421912D01*
D10*
X-355000Y-8773000D02*
X-355000Y-8873000D01*
X-405000Y-8823000D02*
X-305000Y-8823000D01*
D11*
X60539Y-8914484D02*
X-53747Y-8914484D01*
X3396Y-8914484D02*
X3396Y-8714484D01*
X3396Y-8714484D02*
X-15652Y-8743055D01*
X-15652Y-8743055D02*
X-34699Y-8762103D01*
X-34699Y-8762103D02*
X-53747Y-8771627D01*
X146253Y-8895436D02*
X155777Y-8904960D01*
X155777Y-8904960D02*
X146253Y-8914484D01*
X146253Y-8914484D02*
X136729Y-8904960D01*
X136729Y-8904960D02*
X146253Y-8895436D01*
X146253Y-8895436D02*
X146253Y-8914484D01*
X279586Y-8714484D02*
X298634Y-8714484D01*
X298634Y-8714484D02*
X317682Y-8724008D01*
X317682Y-8724008D02*
X327205Y-8733531D01*
X327205Y-8733531D02*
X336729Y-8752579D01*
X336729Y-8752579D02*
X346253Y-8790674D01*
X346253Y-8790674D02*
X346253Y-8838293D01*
X346253Y-8838293D02*
X336729Y-8876389D01*
X336729Y-8876389D02*
X327205Y-8895436D01*
X327205Y-8895436D02*
X317682Y-8904960D01*
X317682Y-8904960D02*
X298634Y-8914484D01*
X298634Y-8914484D02*
X279586Y-8914484D01*
X279586Y-8914484D02*
X260539Y-8904960D01*
X260539Y-8904960D02*
X251015Y-8895436D01*
X251015Y-8895436D02*
X241491Y-8876389D01*
X241491Y-8876389D02*
X231967Y-8838293D01*
X231967Y-8838293D02*
X231967Y-8790674D01*
X231967Y-8790674D02*
X241491Y-8752579D01*
X241491Y-8752579D02*
X251015Y-8733531D01*
X251015Y-8733531D02*
X260539Y-8724008D01*
X260539Y-8724008D02*
X279586Y-8714484D01*
X470062Y-8714484D02*
X489110Y-8714484D01*
X489110Y-8714484D02*
X508158Y-8724008D01*
X508158Y-8724008D02*
X517682Y-8733531D01*
X517682Y-8733531D02*
X527205Y-8752579D01*
X527205Y-8752579D02*
X536729Y-8790674D01*
X536729Y-8790674D02*
X536729Y-8838293D01*
X536729Y-8838293D02*
X527205Y-8876389D01*
X527205Y-8876389D02*
X517682Y-8895436D01*
X517682Y-8895436D02*
X508158Y-8904960D01*
X508158Y-8904960D02*
X489110Y-8914484D01*
X489110Y-8914484D02*
X470062Y-8914484D01*
X470062Y-8914484D02*
X451015Y-8904960D01*
X451015Y-8904960D02*
X441491Y-8895436D01*
X441491Y-8895436D02*
X431967Y-8876389D01*
X431967Y-8876389D02*
X422443Y-8838293D01*
X422443Y-8838293D02*
X422443Y-8790674D01*
X422443Y-8790674D02*
X431967Y-8752579D01*
X431967Y-8752579D02*
X441491Y-8733531D01*
X441491Y-8733531D02*
X451015Y-8724008D01*
X451015Y-8724008D02*
X470062Y-8714484D01*
X660539Y-8714484D02*
X679586Y-8714484D01*
X679586Y-8714484D02*
X698634Y-8724008D01*
X698634Y-8724008D02*
X708158Y-8733531D01*
X708158Y-8733531D02*
X717682Y-8752579D01*
X717682Y-8752579D02*
X727205Y-8790674D01*
X727205Y-8790674D02*
X727205Y-8838293D01*
X727205Y-8838293D02*
X717682Y-8876389D01*
X717682Y-8876389D02*
X708158Y-8895436D01*
X708158Y-8895436D02*
X698634Y-8904960D01*
X698634Y-8904960D02*
X679586Y-8914484D01*
X679586Y-8914484D02*
X660539Y-8914484D01*
X660539Y-8914484D02*
X641491Y-8904960D01*
X641491Y-8904960D02*
X631967Y-8895436D01*
X631967Y-8895436D02*
X622444Y-8876389D01*
X622444Y-8876389D02*
X612920Y-8838293D01*
X612920Y-8838293D02*
X612920Y-8790674D01*
X612920Y-8790674D02*
X622444Y-8752579D01*
X622444Y-8752579D02*
X631967Y-8733531D01*
X631967Y-8733531D02*
X641491Y-8724008D01*
X641491Y-8724008D02*
X660539Y-8714484D01*
X812920Y-8914484D02*
X812920Y-8781150D01*
X812920Y-8800198D02*
X822443Y-8790674D01*
X822443Y-8790674D02*
X841491Y-8781150D01*
X841491Y-8781150D02*
X870063Y-8781150D01*
X870063Y-8781150D02*
X889110Y-8790674D01*
X889110Y-8790674D02*
X898634Y-8809722D01*
X898634Y-8809722D02*
X898634Y-8914484D01*
X898634Y-8809722D02*
X908158Y-8790674D01*
X908158Y-8790674D02*
X927205Y-8781150D01*
X927205Y-8781150D02*
X955777Y-8781150D01*
X955777Y-8781150D02*
X974824Y-8790674D01*
X974824Y-8790674D02*
X984348Y-8809722D01*
X984348Y-8809722D02*
X984348Y-8914484D01*
X1079586Y-8914484D02*
X1079586Y-8781150D01*
X1079586Y-8800198D02*
X1089110Y-8790674D01*
X1089110Y-8790674D02*
X1108158Y-8781150D01*
X1108158Y-8781150D02*
X1136729Y-8781150D01*
X1136729Y-8781150D02*
X1155777Y-8790674D01*
X1155777Y-8790674D02*
X1165301Y-8809722D01*
X1165301Y-8809722D02*
X1165301Y-8914484D01*
X1165301Y-8809722D02*
X1174825Y-8790674D01*
X1174825Y-8790674D02*
X1193872Y-8781150D01*
X1193872Y-8781150D02*
X1222444Y-8781150D01*
X1222444Y-8781150D02*
X1241491Y-8790674D01*
X1241491Y-8790674D02*
X1251015Y-8809722D01*
X1251015Y-8809722D02*
X1251015Y-8914484D01*
X1641491Y-8704960D02*
X1470063Y-8962103D01*
X1898634Y-8714484D02*
X1917682Y-8714484D01*
X1917682Y-8714484D02*
X1936729Y-8724008D01*
X1936729Y-8724008D02*
X1946253Y-8733531D01*
X1946253Y-8733531D02*
X1955777Y-8752579D01*
X1955777Y-8752579D02*
X1965301Y-8790674D01*
X1965301Y-8790674D02*
X1965301Y-8838293D01*
X1965301Y-8838293D02*
X1955777Y-8876389D01*
X1955777Y-8876389D02*
X1946253Y-8895436D01*
X1946253Y-8895436D02*
X1936729Y-8904960D01*
X1936729Y-8904960D02*
X1917682Y-8914484D01*
X1917682Y-8914484D02*
X1898634Y-8914484D01*
X1898634Y-8914484D02*
X1879586Y-8904960D01*
X1879586Y-8904960D02*
X1870063Y-8895436D01*
X1870063Y-8895436D02*
X1860539Y-8876389D01*
X1860539Y-8876389D02*
X1851015Y-8838293D01*
X1851015Y-8838293D02*
X1851015Y-8790674D01*
X1851015Y-8790674D02*
X1860539Y-8752579D01*
X1860539Y-8752579D02*
X1870063Y-8733531D01*
X1870063Y-8733531D02*
X1879586Y-8724008D01*
X1879586Y-8724008D02*
X1898634Y-8714484D01*
X2051015Y-8895436D02*
X2060539Y-8904960D01*
X2060539Y-8904960D02*
X2051015Y-8914484D01*
X2051015Y-8914484D02*
X2041491Y-8904960D01*
X2041491Y-8904960D02*
X2051015Y-8895436D01*
X2051015Y-8895436D02*
X2051015Y-8914484D01*
X2184348Y-8714484D02*
X2203396Y-8714484D01*
X2203396Y-8714484D02*
X2222444Y-8724008D01*
X2222444Y-8724008D02*
X2231968Y-8733531D01*
X2231968Y-8733531D02*
X2241491Y-8752579D01*
X2241491Y-8752579D02*
X2251015Y-8790674D01*
X2251015Y-8790674D02*
X2251015Y-8838293D01*
X2251015Y-8838293D02*
X2241491Y-8876389D01*
X2241491Y-8876389D02*
X2231968Y-8895436D01*
X2231968Y-8895436D02*
X2222444Y-8904960D01*
X2222444Y-8904960D02*
X2203396Y-8914484D01*
X2203396Y-8914484D02*
X2184348Y-8914484D01*
X2184348Y-8914484D02*
X2165301Y-8904960D01*
X2165301Y-8904960D02*
X2155777Y-8895436D01*
X2155777Y-8895436D02*
X2146253Y-8876389D01*
X2146253Y-8876389D02*
X2136729Y-8838293D01*
X2136729Y-8838293D02*
X2136729Y-8790674D01*
X2136729Y-8790674D02*
X2146253Y-8752579D01*
X2146253Y-8752579D02*
X2155777Y-8733531D01*
X2155777Y-8733531D02*
X2165301Y-8724008D01*
X2165301Y-8724008D02*
X2184348Y-8714484D01*
X2317682Y-8714484D02*
X2441491Y-8714484D01*
X2441491Y-8714484D02*
X2374825Y-8790674D01*
X2374825Y-8790674D02*
X2403396Y-8790674D01*
X2403396Y-8790674D02*
X2422444Y-8800198D01*
X2422444Y-8800198D02*
X2431968Y-8809722D01*
X2431968Y-8809722D02*
X2441491Y-8828770D01*
X2441491Y-8828770D02*
X2441491Y-8876389D01*
X2441491Y-8876389D02*
X2431968Y-8895436D01*
X2431968Y-8895436D02*
X2422444Y-8904960D01*
X2422444Y-8904960D02*
X2403396Y-8914484D01*
X2403396Y-8914484D02*
X2346253Y-8914484D01*
X2346253Y-8914484D02*
X2327206Y-8904960D01*
X2327206Y-8904960D02*
X2317682Y-8895436D01*
X2536729Y-8914484D02*
X2574825Y-8914484D01*
X2574825Y-8914484D02*
X2593872Y-8904960D01*
X2593872Y-8904960D02*
X2603396Y-8895436D01*
X2603396Y-8895436D02*
X2622444Y-8866865D01*
X2622444Y-8866865D02*
X2631968Y-8828770D01*
X2631968Y-8828770D02*
X2631968Y-8752579D01*
X2631968Y-8752579D02*
X2622444Y-8733531D01*
X2622444Y-8733531D02*
X2612920Y-8724008D01*
X2612920Y-8724008D02*
X2593872Y-8714484D01*
X2593872Y-8714484D02*
X2555777Y-8714484D01*
X2555777Y-8714484D02*
X2536729Y-8724008D01*
X2536729Y-8724008D02*
X2527206Y-8733531D01*
X2527206Y-8733531D02*
X2517682Y-8752579D01*
X2517682Y-8752579D02*
X2517682Y-8800198D01*
X2517682Y-8800198D02*
X2527206Y-8819246D01*
X2527206Y-8819246D02*
X2536729Y-8828770D01*
X2536729Y-8828770D02*
X2555777Y-8838293D01*
X2555777Y-8838293D02*
X2593872Y-8838293D01*
X2593872Y-8838293D02*
X2612920Y-8828770D01*
X2612920Y-8828770D02*
X2622444Y-8819246D01*
X2622444Y-8819246D02*
X2631968Y-8800198D01*
X2803396Y-8781150D02*
X2803396Y-8914484D01*
X2755777Y-8704960D02*
X2708158Y-8847817D01*
X2708158Y-8847817D02*
X2831967Y-8847817D01*
X2898634Y-8714484D02*
X2898634Y-8752579D01*
X2974825Y-8714484D02*
X2974825Y-8752579D01*
X3270063Y-8990674D02*
X3260539Y-8981150D01*
X3260539Y-8981150D02*
X3241491Y-8952579D01*
X3241491Y-8952579D02*
X3231968Y-8933531D01*
X3231968Y-8933531D02*
X3222444Y-8904960D01*
X3222444Y-8904960D02*
X3212920Y-8857341D01*
X3212920Y-8857341D02*
X3212920Y-8819246D01*
X3212920Y-8819246D02*
X3222444Y-8771627D01*
X3222444Y-8771627D02*
X3231968Y-8743055D01*
X3231968Y-8743055D02*
X3241491Y-8724008D01*
X3241491Y-8724008D02*
X3260539Y-8695436D01*
X3260539Y-8695436D02*
X3270063Y-8685912D01*
X3355777Y-8914484D02*
X3393872Y-8914484D01*
X3393872Y-8914484D02*
X3412920Y-8904960D01*
X3412920Y-8904960D02*
X3422444Y-8895436D01*
X3422444Y-8895436D02*
X3441491Y-8866865D01*
X3441491Y-8866865D02*
X3451015Y-8828770D01*
X3451015Y-8828770D02*
X3451015Y-8752579D01*
X3451015Y-8752579D02*
X3441491Y-8733531D01*
X3441491Y-8733531D02*
X3431968Y-8724008D01*
X3431968Y-8724008D02*
X3412920Y-8714484D01*
X3412920Y-8714484D02*
X3374825Y-8714484D01*
X3374825Y-8714484D02*
X3355777Y-8724008D01*
X3355777Y-8724008D02*
X3346253Y-8733531D01*
X3346253Y-8733531D02*
X3336729Y-8752579D01*
X3336729Y-8752579D02*
X3336729Y-8800198D01*
X3336729Y-8800198D02*
X3346253Y-8819246D01*
X3346253Y-8819246D02*
X3355777Y-8828770D01*
X3355777Y-8828770D02*
X3374825Y-8838293D01*
X3374825Y-8838293D02*
X3412920Y-8838293D01*
X3412920Y-8838293D02*
X3431968Y-8828770D01*
X3431968Y-8828770D02*
X3441491Y-8819246D01*
X3441491Y-8819246D02*
X3451015Y-8800198D01*
X3517682Y-8714484D02*
X3641491Y-8714484D01*
X3641491Y-8714484D02*
X3574825Y-8790674D01*
X3574825Y-8790674D02*
X3603396Y-8790674D01*
X3603396Y-8790674D02*
X3622444Y-8800198D01*
X3622444Y-8800198D02*
X3631968Y-8809722D01*
X3631968Y-8809722D02*
X3641491Y-8828770D01*
X3641491Y-8828770D02*
X3641491Y-8876389D01*
X3641491Y-8876389D02*
X3631968Y-8895436D01*
X3631968Y-8895436D02*
X3622444Y-8904960D01*
X3622444Y-8904960D02*
X3603396Y-8914484D01*
X3603396Y-8914484D02*
X3546253Y-8914484D01*
X3546253Y-8914484D02*
X3527206Y-8904960D01*
X3527206Y-8904960D02*
X3517682Y-8895436D01*
X3879587Y-8914484D02*
X3879587Y-8714484D01*
X3965301Y-8914484D02*
X3965301Y-8809722D01*
X3965301Y-8809722D02*
X3955777Y-8790674D01*
X3955777Y-8790674D02*
X3936730Y-8781150D01*
X3936730Y-8781150D02*
X3908158Y-8781150D01*
X3908158Y-8781150D02*
X3889110Y-8790674D01*
X3889110Y-8790674D02*
X3879587Y-8800198D01*
X4089110Y-8914484D02*
X4070063Y-8904960D01*
X4070063Y-8904960D02*
X4060539Y-8895436D01*
X4060539Y-8895436D02*
X4051015Y-8876389D01*
X4051015Y-8876389D02*
X4051015Y-8819246D01*
X4051015Y-8819246D02*
X4060539Y-8800198D01*
X4060539Y-8800198D02*
X4070063Y-8790674D01*
X4070063Y-8790674D02*
X4089110Y-8781150D01*
X4089110Y-8781150D02*
X4117682Y-8781150D01*
X4117682Y-8781150D02*
X4136730Y-8790674D01*
X4136730Y-8790674D02*
X4146253Y-8800198D01*
X4146253Y-8800198D02*
X4155777Y-8819246D01*
X4155777Y-8819246D02*
X4155777Y-8876389D01*
X4155777Y-8876389D02*
X4146253Y-8895436D01*
X4146253Y-8895436D02*
X4136730Y-8904960D01*
X4136730Y-8904960D02*
X4117682Y-8914484D01*
X4117682Y-8914484D02*
X4089110Y-8914484D01*
X4270063Y-8914484D02*
X4251015Y-8904960D01*
X4251015Y-8904960D02*
X4241492Y-8885912D01*
X4241492Y-8885912D02*
X4241492Y-8714484D01*
X4422444Y-8904960D02*
X4403396Y-8914484D01*
X4403396Y-8914484D02*
X4365301Y-8914484D01*
X4365301Y-8914484D02*
X4346253Y-8904960D01*
X4346253Y-8904960D02*
X4336730Y-8885912D01*
X4336730Y-8885912D02*
X4336730Y-8809722D01*
X4336730Y-8809722D02*
X4346253Y-8790674D01*
X4346253Y-8790674D02*
X4365301Y-8781150D01*
X4365301Y-8781150D02*
X4403396Y-8781150D01*
X4403396Y-8781150D02*
X4422444Y-8790674D01*
X4422444Y-8790674D02*
X4431968Y-8809722D01*
X4431968Y-8809722D02*
X4431968Y-8828770D01*
X4431968Y-8828770D02*
X4336730Y-8847817D01*
X4508158Y-8904960D02*
X4527206Y-8914484D01*
X4527206Y-8914484D02*
X4565301Y-8914484D01*
X4565301Y-8914484D02*
X4584349Y-8904960D01*
X4584349Y-8904960D02*
X4593873Y-8885912D01*
X4593873Y-8885912D02*
X4593873Y-8876389D01*
X4593873Y-8876389D02*
X4584349Y-8857341D01*
X4584349Y-8857341D02*
X4565301Y-8847817D01*
X4565301Y-8847817D02*
X4536730Y-8847817D01*
X4536730Y-8847817D02*
X4517682Y-8838293D01*
X4517682Y-8838293D02*
X4508158Y-8819246D01*
X4508158Y-8819246D02*
X4508158Y-8809722D01*
X4508158Y-8809722D02*
X4517682Y-8790674D01*
X4517682Y-8790674D02*
X4536730Y-8781150D01*
X4536730Y-8781150D02*
X4565301Y-8781150D01*
X4565301Y-8781150D02*
X4584349Y-8790674D01*
X4660539Y-8990674D02*
X4670063Y-8981150D01*
X4670063Y-8981150D02*
X4689111Y-8952579D01*
X4689111Y-8952579D02*
X4698634Y-8933531D01*
X4698634Y-8933531D02*
X4708158Y-8904960D01*
X4708158Y-8904960D02*
X4717682Y-8857341D01*
X4717682Y-8857341D02*
X4717682Y-8819246D01*
X4717682Y-8819246D02*
X4708158Y-8771627D01*
X4708158Y-8771627D02*
X4698634Y-8743055D01*
X4698634Y-8743055D02*
X4689111Y-8724008D01*
X4689111Y-8724008D02*
X4670063Y-8695436D01*
X4670063Y-8695436D02*
X4660539Y-8685912D01*
D12*
X-322573Y-9129427D02*
X-322573Y-9044573D01*
X-407427Y-9044573D01*
X-407427Y-9129427D01*
X-322573Y-9129427D01*
D11*
X60539Y-9178484D02*
X-53747Y-9178484D01*
X3396Y-9178484D02*
X3396Y-8978484D01*
X3396Y-8978484D02*
X-15652Y-9007055D01*
X-15652Y-9007055D02*
X-34699Y-9026103D01*
X-34699Y-9026103D02*
X-53747Y-9035627D01*
X146253Y-9159436D02*
X155777Y-9168960D01*
X155777Y-9168960D02*
X146253Y-9178484D01*
X146253Y-9178484D02*
X136729Y-9168960D01*
X136729Y-9168960D02*
X146253Y-9159436D01*
X146253Y-9159436D02*
X146253Y-9178484D01*
X231967Y-8997531D02*
X241491Y-8988008D01*
X241491Y-8988008D02*
X260539Y-8978484D01*
X260539Y-8978484D02*
X308158Y-8978484D01*
X308158Y-8978484D02*
X327205Y-8988008D01*
X327205Y-8988008D02*
X336729Y-8997531D01*
X336729Y-8997531D02*
X346253Y-9016579D01*
X346253Y-9016579D02*
X346253Y-9035627D01*
X346253Y-9035627D02*
X336729Y-9064198D01*
X336729Y-9064198D02*
X222443Y-9178484D01*
X222443Y-9178484D02*
X346253Y-9178484D01*
X470062Y-8978484D02*
X489110Y-8978484D01*
X489110Y-8978484D02*
X508158Y-8988008D01*
X508158Y-8988008D02*
X517682Y-8997531D01*
X517682Y-8997531D02*
X527205Y-9016579D01*
X527205Y-9016579D02*
X536729Y-9054674D01*
X536729Y-9054674D02*
X536729Y-9102293D01*
X536729Y-9102293D02*
X527205Y-9140389D01*
X527205Y-9140389D02*
X517682Y-9159436D01*
X517682Y-9159436D02*
X508158Y-9168960D01*
X508158Y-9168960D02*
X489110Y-9178484D01*
X489110Y-9178484D02*
X470062Y-9178484D01*
X470062Y-9178484D02*
X451015Y-9168960D01*
X451015Y-9168960D02*
X441491Y-9159436D01*
X441491Y-9159436D02*
X431967Y-9140389D01*
X431967Y-9140389D02*
X422443Y-9102293D01*
X422443Y-9102293D02*
X422443Y-9054674D01*
X422443Y-9054674D02*
X431967Y-9016579D01*
X431967Y-9016579D02*
X441491Y-8997531D01*
X441491Y-8997531D02*
X451015Y-8988008D01*
X451015Y-8988008D02*
X470062Y-8978484D01*
X660539Y-8978484D02*
X679586Y-8978484D01*
X679586Y-8978484D02*
X698634Y-8988008D01*
X698634Y-8988008D02*
X708158Y-8997531D01*
X708158Y-8997531D02*
X717682Y-9016579D01*
X717682Y-9016579D02*
X727205Y-9054674D01*
X727205Y-9054674D02*
X727205Y-9102293D01*
X727205Y-9102293D02*
X717682Y-9140389D01*
X717682Y-9140389D02*
X708158Y-9159436D01*
X708158Y-9159436D02*
X698634Y-9168960D01*
X698634Y-9168960D02*
X679586Y-9178484D01*
X679586Y-9178484D02*
X660539Y-9178484D01*
X660539Y-9178484D02*
X641491Y-9168960D01*
X641491Y-9168960D02*
X631967Y-9159436D01*
X631967Y-9159436D02*
X622444Y-9140389D01*
X622444Y-9140389D02*
X612920Y-9102293D01*
X612920Y-9102293D02*
X612920Y-9054674D01*
X612920Y-9054674D02*
X622444Y-9016579D01*
X622444Y-9016579D02*
X631967Y-8997531D01*
X631967Y-8997531D02*
X641491Y-8988008D01*
X641491Y-8988008D02*
X660539Y-8978484D01*
X812920Y-9178484D02*
X812920Y-9045150D01*
X812920Y-9064198D02*
X822443Y-9054674D01*
X822443Y-9054674D02*
X841491Y-9045150D01*
X841491Y-9045150D02*
X870063Y-9045150D01*
X870063Y-9045150D02*
X889110Y-9054674D01*
X889110Y-9054674D02*
X898634Y-9073722D01*
X898634Y-9073722D02*
X898634Y-9178484D01*
X898634Y-9073722D02*
X908158Y-9054674D01*
X908158Y-9054674D02*
X927205Y-9045150D01*
X927205Y-9045150D02*
X955777Y-9045150D01*
X955777Y-9045150D02*
X974824Y-9054674D01*
X974824Y-9054674D02*
X984348Y-9073722D01*
X984348Y-9073722D02*
X984348Y-9178484D01*
X1079586Y-9178484D02*
X1079586Y-9045150D01*
X1079586Y-9064198D02*
X1089110Y-9054674D01*
X1089110Y-9054674D02*
X1108158Y-9045150D01*
X1108158Y-9045150D02*
X1136729Y-9045150D01*
X1136729Y-9045150D02*
X1155777Y-9054674D01*
X1155777Y-9054674D02*
X1165301Y-9073722D01*
X1165301Y-9073722D02*
X1165301Y-9178484D01*
X1165301Y-9073722D02*
X1174825Y-9054674D01*
X1174825Y-9054674D02*
X1193872Y-9045150D01*
X1193872Y-9045150D02*
X1222444Y-9045150D01*
X1222444Y-9045150D02*
X1241491Y-9054674D01*
X1241491Y-9054674D02*
X1251015Y-9073722D01*
X1251015Y-9073722D02*
X1251015Y-9178484D01*
X1641491Y-8968960D02*
X1470063Y-9226103D01*
X1898634Y-8978484D02*
X1917682Y-8978484D01*
X1917682Y-8978484D02*
X1936729Y-8988008D01*
X1936729Y-8988008D02*
X1946253Y-8997531D01*
X1946253Y-8997531D02*
X1955777Y-9016579D01*
X1955777Y-9016579D02*
X1965301Y-9054674D01*
X1965301Y-9054674D02*
X1965301Y-9102293D01*
X1965301Y-9102293D02*
X1955777Y-9140389D01*
X1955777Y-9140389D02*
X1946253Y-9159436D01*
X1946253Y-9159436D02*
X1936729Y-9168960D01*
X1936729Y-9168960D02*
X1917682Y-9178484D01*
X1917682Y-9178484D02*
X1898634Y-9178484D01*
X1898634Y-9178484D02*
X1879586Y-9168960D01*
X1879586Y-9168960D02*
X1870063Y-9159436D01*
X1870063Y-9159436D02*
X1860539Y-9140389D01*
X1860539Y-9140389D02*
X1851015Y-9102293D01*
X1851015Y-9102293D02*
X1851015Y-9054674D01*
X1851015Y-9054674D02*
X1860539Y-9016579D01*
X1860539Y-9016579D02*
X1870063Y-8997531D01*
X1870063Y-8997531D02*
X1879586Y-8988008D01*
X1879586Y-8988008D02*
X1898634Y-8978484D01*
X2051015Y-9159436D02*
X2060539Y-9168960D01*
X2060539Y-9168960D02*
X2051015Y-9178484D01*
X2051015Y-9178484D02*
X2041491Y-9168960D01*
X2041491Y-9168960D02*
X2051015Y-9159436D01*
X2051015Y-9159436D02*
X2051015Y-9178484D01*
X2184348Y-8978484D02*
X2203396Y-8978484D01*
X2203396Y-8978484D02*
X2222444Y-8988008D01*
X2222444Y-8988008D02*
X2231968Y-8997531D01*
X2231968Y-8997531D02*
X2241491Y-9016579D01*
X2241491Y-9016579D02*
X2251015Y-9054674D01*
X2251015Y-9054674D02*
X2251015Y-9102293D01*
X2251015Y-9102293D02*
X2241491Y-9140389D01*
X2241491Y-9140389D02*
X2231968Y-9159436D01*
X2231968Y-9159436D02*
X2222444Y-9168960D01*
X2222444Y-9168960D02*
X2203396Y-9178484D01*
X2203396Y-9178484D02*
X2184348Y-9178484D01*
X2184348Y-9178484D02*
X2165301Y-9168960D01*
X2165301Y-9168960D02*
X2155777Y-9159436D01*
X2155777Y-9159436D02*
X2146253Y-9140389D01*
X2146253Y-9140389D02*
X2136729Y-9102293D01*
X2136729Y-9102293D02*
X2136729Y-9054674D01*
X2136729Y-9054674D02*
X2146253Y-9016579D01*
X2146253Y-9016579D02*
X2155777Y-8997531D01*
X2155777Y-8997531D02*
X2165301Y-8988008D01*
X2165301Y-8988008D02*
X2184348Y-8978484D01*
X2422444Y-9045150D02*
X2422444Y-9178484D01*
X2374825Y-8968960D02*
X2327206Y-9111817D01*
X2327206Y-9111817D02*
X2451015Y-9111817D01*
X2508158Y-8978484D02*
X2641491Y-8978484D01*
X2641491Y-8978484D02*
X2555777Y-9178484D01*
X2708158Y-8997531D02*
X2717682Y-8988008D01*
X2717682Y-8988008D02*
X2736729Y-8978484D01*
X2736729Y-8978484D02*
X2784349Y-8978484D01*
X2784349Y-8978484D02*
X2803396Y-8988008D01*
X2803396Y-8988008D02*
X2812920Y-8997531D01*
X2812920Y-8997531D02*
X2822444Y-9016579D01*
X2822444Y-9016579D02*
X2822444Y-9035627D01*
X2822444Y-9035627D02*
X2812920Y-9064198D01*
X2812920Y-9064198D02*
X2698634Y-9178484D01*
X2698634Y-9178484D02*
X2822444Y-9178484D01*
X2898634Y-8978484D02*
X2898634Y-9016579D01*
X2974825Y-8978484D02*
X2974825Y-9016579D01*
X3270063Y-9254674D02*
X3260539Y-9245150D01*
X3260539Y-9245150D02*
X3241491Y-9216579D01*
X3241491Y-9216579D02*
X3231968Y-9197531D01*
X3231968Y-9197531D02*
X3222444Y-9168960D01*
X3222444Y-9168960D02*
X3212920Y-9121341D01*
X3212920Y-9121341D02*
X3212920Y-9083246D01*
X3212920Y-9083246D02*
X3222444Y-9035627D01*
X3222444Y-9035627D02*
X3231968Y-9007055D01*
X3231968Y-9007055D02*
X3241491Y-8988008D01*
X3241491Y-8988008D02*
X3260539Y-8959436D01*
X3260539Y-8959436D02*
X3270063Y-8949912D01*
X3451015Y-9178484D02*
X3336729Y-9178484D01*
X3393872Y-9178484D02*
X3393872Y-8978484D01*
X3393872Y-8978484D02*
X3374825Y-9007055D01*
X3374825Y-9007055D02*
X3355777Y-9026103D01*
X3355777Y-9026103D02*
X3336729Y-9035627D01*
X3574825Y-8978484D02*
X3593872Y-8978484D01*
X3593872Y-8978484D02*
X3612920Y-8988008D01*
X3612920Y-8988008D02*
X3622444Y-8997531D01*
X3622444Y-8997531D02*
X3631968Y-9016579D01*
X3631968Y-9016579D02*
X3641491Y-9054674D01*
X3641491Y-9054674D02*
X3641491Y-9102293D01*
X3641491Y-9102293D02*
X3631968Y-9140389D01*
X3631968Y-9140389D02*
X3622444Y-9159436D01*
X3622444Y-9159436D02*
X3612920Y-9168960D01*
X3612920Y-9168960D02*
X3593872Y-9178484D01*
X3593872Y-9178484D02*
X3574825Y-9178484D01*
X3574825Y-9178484D02*
X3555777Y-9168960D01*
X3555777Y-9168960D02*
X3546253Y-9159436D01*
X3546253Y-9159436D02*
X3536729Y-9140389D01*
X3536729Y-9140389D02*
X3527206Y-9102293D01*
X3527206Y-9102293D02*
X3527206Y-9054674D01*
X3527206Y-9054674D02*
X3536729Y-9016579D01*
X3536729Y-9016579D02*
X3546253Y-8997531D01*
X3546253Y-8997531D02*
X3555777Y-8988008D01*
X3555777Y-8988008D02*
X3574825Y-8978484D01*
X3879587Y-9178484D02*
X3879587Y-8978484D01*
X3965301Y-9178484D02*
X3965301Y-9073722D01*
X3965301Y-9073722D02*
X3955777Y-9054674D01*
X3955777Y-9054674D02*
X3936730Y-9045150D01*
X3936730Y-9045150D02*
X3908158Y-9045150D01*
X3908158Y-9045150D02*
X3889110Y-9054674D01*
X3889110Y-9054674D02*
X3879587Y-9064198D01*
X4089110Y-9178484D02*
X4070063Y-9168960D01*
X4070063Y-9168960D02*
X4060539Y-9159436D01*
X4060539Y-9159436D02*
X4051015Y-9140389D01*
X4051015Y-9140389D02*
X4051015Y-9083246D01*
X4051015Y-9083246D02*
X4060539Y-9064198D01*
X4060539Y-9064198D02*
X4070063Y-9054674D01*
X4070063Y-9054674D02*
X4089110Y-9045150D01*
X4089110Y-9045150D02*
X4117682Y-9045150D01*
X4117682Y-9045150D02*
X4136730Y-9054674D01*
X4136730Y-9054674D02*
X4146253Y-9064198D01*
X4146253Y-9064198D02*
X4155777Y-9083246D01*
X4155777Y-9083246D02*
X4155777Y-9140389D01*
X4155777Y-9140389D02*
X4146253Y-9159436D01*
X4146253Y-9159436D02*
X4136730Y-9168960D01*
X4136730Y-9168960D02*
X4117682Y-9178484D01*
X4117682Y-9178484D02*
X4089110Y-9178484D01*
X4270063Y-9178484D02*
X4251015Y-9168960D01*
X4251015Y-9168960D02*
X4241492Y-9149912D01*
X4241492Y-9149912D02*
X4241492Y-8978484D01*
X4422444Y-9168960D02*
X4403396Y-9178484D01*
X4403396Y-9178484D02*
X4365301Y-9178484D01*
X4365301Y-9178484D02*
X4346253Y-9168960D01*
X4346253Y-9168960D02*
X4336730Y-9149912D01*
X4336730Y-9149912D02*
X4336730Y-9073722D01*
X4336730Y-9073722D02*
X4346253Y-9054674D01*
X4346253Y-9054674D02*
X4365301Y-9045150D01*
X4365301Y-9045150D02*
X4403396Y-9045150D01*
X4403396Y-9045150D02*
X4422444Y-9054674D01*
X4422444Y-9054674D02*
X4431968Y-9073722D01*
X4431968Y-9073722D02*
X4431968Y-9092770D01*
X4431968Y-9092770D02*
X4336730Y-9111817D01*
X4508158Y-9168960D02*
X4527206Y-9178484D01*
X4527206Y-9178484D02*
X4565301Y-9178484D01*
X4565301Y-9178484D02*
X4584349Y-9168960D01*
X4584349Y-9168960D02*
X4593873Y-9149912D01*
X4593873Y-9149912D02*
X4593873Y-9140389D01*
X4593873Y-9140389D02*
X4584349Y-9121341D01*
X4584349Y-9121341D02*
X4565301Y-9111817D01*
X4565301Y-9111817D02*
X4536730Y-9111817D01*
X4536730Y-9111817D02*
X4517682Y-9102293D01*
X4517682Y-9102293D02*
X4508158Y-9083246D01*
X4508158Y-9083246D02*
X4508158Y-9073722D01*
X4508158Y-9073722D02*
X4517682Y-9054674D01*
X4517682Y-9054674D02*
X4536730Y-9045150D01*
X4536730Y-9045150D02*
X4565301Y-9045150D01*
X4565301Y-9045150D02*
X4584349Y-9054674D01*
X4660539Y-9254674D02*
X4670063Y-9245150D01*
X4670063Y-9245150D02*
X4689111Y-9216579D01*
X4689111Y-9216579D02*
X4698634Y-9197531D01*
X4698634Y-9197531D02*
X4708158Y-9168960D01*
X4708158Y-9168960D02*
X4717682Y-9121341D01*
X4717682Y-9121341D02*
X4717682Y-9083246D01*
X4717682Y-9083246D02*
X4708158Y-9035627D01*
X4708158Y-9035627D02*
X4698634Y-9007055D01*
X4698634Y-9007055D02*
X4689111Y-8988008D01*
X4689111Y-8988008D02*
X4670063Y-8959436D01*
X4670063Y-8959436D02*
X4660539Y-8949912D01*
X-405000Y-9451000D02*
X-305000Y-9351000D01*
X-405000Y-9251000D01*
X-505000Y-9351000D01*
X-405000Y-9451000D01*
X-53747Y-9261531D02*
X-44223Y-9252008D01*
X-44223Y-9252008D02*
X-25175Y-9242484D01*
X-25175Y-9242484D02*
X22443Y-9242484D01*
X22443Y-9242484D02*
X41491Y-9252008D01*
X41491Y-9252008D02*
X51015Y-9261531D01*
X51015Y-9261531D02*
X60539Y-9280579D01*
X60539Y-9280579D02*
X60539Y-9299627D01*
X60539Y-9299627D02*
X51015Y-9328198D01*
X51015Y-9328198D02*
X-63271Y-9442484D01*
X-63271Y-9442484D02*
X60539Y-9442484D01*
X146253Y-9423436D02*
X155777Y-9432960D01*
X155777Y-9432960D02*
X146253Y-9442484D01*
X146253Y-9442484D02*
X136729Y-9432960D01*
X136729Y-9432960D02*
X146253Y-9423436D01*
X146253Y-9423436D02*
X146253Y-9442484D01*
X231967Y-9261531D02*
X241491Y-9252008D01*
X241491Y-9252008D02*
X260539Y-9242484D01*
X260539Y-9242484D02*
X308158Y-9242484D01*
X308158Y-9242484D02*
X327205Y-9252008D01*
X327205Y-9252008D02*
X336729Y-9261531D01*
X336729Y-9261531D02*
X346253Y-9280579D01*
X346253Y-9280579D02*
X346253Y-9299627D01*
X346253Y-9299627D02*
X336729Y-9328198D01*
X336729Y-9328198D02*
X222443Y-9442484D01*
X222443Y-9442484D02*
X346253Y-9442484D01*
X470062Y-9242484D02*
X489110Y-9242484D01*
X489110Y-9242484D02*
X508158Y-9252008D01*
X508158Y-9252008D02*
X517682Y-9261531D01*
X517682Y-9261531D02*
X527205Y-9280579D01*
X527205Y-9280579D02*
X536729Y-9318674D01*
X536729Y-9318674D02*
X536729Y-9366293D01*
X536729Y-9366293D02*
X527205Y-9404389D01*
X527205Y-9404389D02*
X517682Y-9423436D01*
X517682Y-9423436D02*
X508158Y-9432960D01*
X508158Y-9432960D02*
X489110Y-9442484D01*
X489110Y-9442484D02*
X470062Y-9442484D01*
X470062Y-9442484D02*
X451015Y-9432960D01*
X451015Y-9432960D02*
X441491Y-9423436D01*
X441491Y-9423436D02*
X431967Y-9404389D01*
X431967Y-9404389D02*
X422443Y-9366293D01*
X422443Y-9366293D02*
X422443Y-9318674D01*
X422443Y-9318674D02*
X431967Y-9280579D01*
X431967Y-9280579D02*
X441491Y-9261531D01*
X441491Y-9261531D02*
X451015Y-9252008D01*
X451015Y-9252008D02*
X470062Y-9242484D01*
X660539Y-9242484D02*
X679586Y-9242484D01*
X679586Y-9242484D02*
X698634Y-9252008D01*
X698634Y-9252008D02*
X708158Y-9261531D01*
X708158Y-9261531D02*
X717682Y-9280579D01*
X717682Y-9280579D02*
X727205Y-9318674D01*
X727205Y-9318674D02*
X727205Y-9366293D01*
X727205Y-9366293D02*
X717682Y-9404389D01*
X717682Y-9404389D02*
X708158Y-9423436D01*
X708158Y-9423436D02*
X698634Y-9432960D01*
X698634Y-9432960D02*
X679586Y-9442484D01*
X679586Y-9442484D02*
X660539Y-9442484D01*
X660539Y-9442484D02*
X641491Y-9432960D01*
X641491Y-9432960D02*
X631967Y-9423436D01*
X631967Y-9423436D02*
X622444Y-9404389D01*
X622444Y-9404389D02*
X612920Y-9366293D01*
X612920Y-9366293D02*
X612920Y-9318674D01*
X612920Y-9318674D02*
X622444Y-9280579D01*
X622444Y-9280579D02*
X631967Y-9261531D01*
X631967Y-9261531D02*
X641491Y-9252008D01*
X641491Y-9252008D02*
X660539Y-9242484D01*
X812920Y-9442484D02*
X812920Y-9309150D01*
X812920Y-9328198D02*
X822443Y-9318674D01*
X822443Y-9318674D02*
X841491Y-9309150D01*
X841491Y-9309150D02*
X870063Y-9309150D01*
X870063Y-9309150D02*
X889110Y-9318674D01*
X889110Y-9318674D02*
X898634Y-9337722D01*
X898634Y-9337722D02*
X898634Y-9442484D01*
X898634Y-9337722D02*
X908158Y-9318674D01*
X908158Y-9318674D02*
X927205Y-9309150D01*
X927205Y-9309150D02*
X955777Y-9309150D01*
X955777Y-9309150D02*
X974824Y-9318674D01*
X974824Y-9318674D02*
X984348Y-9337722D01*
X984348Y-9337722D02*
X984348Y-9442484D01*
X1079586Y-9442484D02*
X1079586Y-9309150D01*
X1079586Y-9328198D02*
X1089110Y-9318674D01*
X1089110Y-9318674D02*
X1108158Y-9309150D01*
X1108158Y-9309150D02*
X1136729Y-9309150D01*
X1136729Y-9309150D02*
X1155777Y-9318674D01*
X1155777Y-9318674D02*
X1165301Y-9337722D01*
X1165301Y-9337722D02*
X1165301Y-9442484D01*
X1165301Y-9337722D02*
X1174825Y-9318674D01*
X1174825Y-9318674D02*
X1193872Y-9309150D01*
X1193872Y-9309150D02*
X1222444Y-9309150D01*
X1222444Y-9309150D02*
X1241491Y-9318674D01*
X1241491Y-9318674D02*
X1251015Y-9337722D01*
X1251015Y-9337722D02*
X1251015Y-9442484D01*
X1641491Y-9232960D02*
X1470063Y-9490103D01*
X1898634Y-9242484D02*
X1917682Y-9242484D01*
X1917682Y-9242484D02*
X1936729Y-9252008D01*
X1936729Y-9252008D02*
X1946253Y-9261531D01*
X1946253Y-9261531D02*
X1955777Y-9280579D01*
X1955777Y-9280579D02*
X1965301Y-9318674D01*
X1965301Y-9318674D02*
X1965301Y-9366293D01*
X1965301Y-9366293D02*
X1955777Y-9404389D01*
X1955777Y-9404389D02*
X1946253Y-9423436D01*
X1946253Y-9423436D02*
X1936729Y-9432960D01*
X1936729Y-9432960D02*
X1917682Y-9442484D01*
X1917682Y-9442484D02*
X1898634Y-9442484D01*
X1898634Y-9442484D02*
X1879586Y-9432960D01*
X1879586Y-9432960D02*
X1870063Y-9423436D01*
X1870063Y-9423436D02*
X1860539Y-9404389D01*
X1860539Y-9404389D02*
X1851015Y-9366293D01*
X1851015Y-9366293D02*
X1851015Y-9318674D01*
X1851015Y-9318674D02*
X1860539Y-9280579D01*
X1860539Y-9280579D02*
X1870063Y-9261531D01*
X1870063Y-9261531D02*
X1879586Y-9252008D01*
X1879586Y-9252008D02*
X1898634Y-9242484D01*
X2051015Y-9423436D02*
X2060539Y-9432960D01*
X2060539Y-9432960D02*
X2051015Y-9442484D01*
X2051015Y-9442484D02*
X2041491Y-9432960D01*
X2041491Y-9432960D02*
X2051015Y-9423436D01*
X2051015Y-9423436D02*
X2051015Y-9442484D01*
X2184348Y-9242484D02*
X2203396Y-9242484D01*
X2203396Y-9242484D02*
X2222444Y-9252008D01*
X2222444Y-9252008D02*
X2231968Y-9261531D01*
X2231968Y-9261531D02*
X2241491Y-9280579D01*
X2241491Y-9280579D02*
X2251015Y-9318674D01*
X2251015Y-9318674D02*
X2251015Y-9366293D01*
X2251015Y-9366293D02*
X2241491Y-9404389D01*
X2241491Y-9404389D02*
X2231968Y-9423436D01*
X2231968Y-9423436D02*
X2222444Y-9432960D01*
X2222444Y-9432960D02*
X2203396Y-9442484D01*
X2203396Y-9442484D02*
X2184348Y-9442484D01*
X2184348Y-9442484D02*
X2165301Y-9432960D01*
X2165301Y-9432960D02*
X2155777Y-9423436D01*
X2155777Y-9423436D02*
X2146253Y-9404389D01*
X2146253Y-9404389D02*
X2136729Y-9366293D01*
X2136729Y-9366293D02*
X2136729Y-9318674D01*
X2136729Y-9318674D02*
X2146253Y-9280579D01*
X2146253Y-9280579D02*
X2155777Y-9261531D01*
X2155777Y-9261531D02*
X2165301Y-9252008D01*
X2165301Y-9252008D02*
X2184348Y-9242484D01*
X2365301Y-9328198D02*
X2346253Y-9318674D01*
X2346253Y-9318674D02*
X2336729Y-9309150D01*
X2336729Y-9309150D02*
X2327206Y-9290103D01*
X2327206Y-9290103D02*
X2327206Y-9280579D01*
X2327206Y-9280579D02*
X2336729Y-9261531D01*
X2336729Y-9261531D02*
X2346253Y-9252008D01*
X2346253Y-9252008D02*
X2365301Y-9242484D01*
X2365301Y-9242484D02*
X2403396Y-9242484D01*
X2403396Y-9242484D02*
X2422444Y-9252008D01*
X2422444Y-9252008D02*
X2431968Y-9261531D01*
X2431968Y-9261531D02*
X2441491Y-9280579D01*
X2441491Y-9280579D02*
X2441491Y-9290103D01*
X2441491Y-9290103D02*
X2431968Y-9309150D01*
X2431968Y-9309150D02*
X2422444Y-9318674D01*
X2422444Y-9318674D02*
X2403396Y-9328198D01*
X2403396Y-9328198D02*
X2365301Y-9328198D01*
X2365301Y-9328198D02*
X2346253Y-9337722D01*
X2346253Y-9337722D02*
X2336729Y-9347246D01*
X2336729Y-9347246D02*
X2327206Y-9366293D01*
X2327206Y-9366293D02*
X2327206Y-9404389D01*
X2327206Y-9404389D02*
X2336729Y-9423436D01*
X2336729Y-9423436D02*
X2346253Y-9432960D01*
X2346253Y-9432960D02*
X2365301Y-9442484D01*
X2365301Y-9442484D02*
X2403396Y-9442484D01*
X2403396Y-9442484D02*
X2422444Y-9432960D01*
X2422444Y-9432960D02*
X2431968Y-9423436D01*
X2431968Y-9423436D02*
X2441491Y-9404389D01*
X2441491Y-9404389D02*
X2441491Y-9366293D01*
X2441491Y-9366293D02*
X2431968Y-9347246D01*
X2431968Y-9347246D02*
X2422444Y-9337722D01*
X2422444Y-9337722D02*
X2403396Y-9328198D01*
X2612920Y-9242484D02*
X2574825Y-9242484D01*
X2574825Y-9242484D02*
X2555777Y-9252008D01*
X2555777Y-9252008D02*
X2546253Y-9261531D01*
X2546253Y-9261531D02*
X2527206Y-9290103D01*
X2527206Y-9290103D02*
X2517682Y-9328198D01*
X2517682Y-9328198D02*
X2517682Y-9404389D01*
X2517682Y-9404389D02*
X2527206Y-9423436D01*
X2527206Y-9423436D02*
X2536729Y-9432960D01*
X2536729Y-9432960D02*
X2555777Y-9442484D01*
X2555777Y-9442484D02*
X2593872Y-9442484D01*
X2593872Y-9442484D02*
X2612920Y-9432960D01*
X2612920Y-9432960D02*
X2622444Y-9423436D01*
X2622444Y-9423436D02*
X2631968Y-9404389D01*
X2631968Y-9404389D02*
X2631968Y-9356770D01*
X2631968Y-9356770D02*
X2622444Y-9337722D01*
X2622444Y-9337722D02*
X2612920Y-9328198D01*
X2612920Y-9328198D02*
X2593872Y-9318674D01*
X2593872Y-9318674D02*
X2555777Y-9318674D01*
X2555777Y-9318674D02*
X2536729Y-9328198D01*
X2536729Y-9328198D02*
X2527206Y-9337722D01*
X2527206Y-9337722D02*
X2517682Y-9356770D01*
X2803396Y-9242484D02*
X2765301Y-9242484D01*
X2765301Y-9242484D02*
X2746253Y-9252008D01*
X2746253Y-9252008D02*
X2736729Y-9261531D01*
X2736729Y-9261531D02*
X2717682Y-9290103D01*
X2717682Y-9290103D02*
X2708158Y-9328198D01*
X2708158Y-9328198D02*
X2708158Y-9404389D01*
X2708158Y-9404389D02*
X2717682Y-9423436D01*
X2717682Y-9423436D02*
X2727206Y-9432960D01*
X2727206Y-9432960D02*
X2746253Y-9442484D01*
X2746253Y-9442484D02*
X2784349Y-9442484D01*
X2784349Y-9442484D02*
X2803396Y-9432960D01*
X2803396Y-9432960D02*
X2812920Y-9423436D01*
X2812920Y-9423436D02*
X2822444Y-9404389D01*
X2822444Y-9404389D02*
X2822444Y-9356770D01*
X2822444Y-9356770D02*
X2812920Y-9337722D01*
X2812920Y-9337722D02*
X2803396Y-9328198D01*
X2803396Y-9328198D02*
X2784349Y-9318674D01*
X2784349Y-9318674D02*
X2746253Y-9318674D01*
X2746253Y-9318674D02*
X2727206Y-9328198D01*
X2727206Y-9328198D02*
X2717682Y-9337722D01*
X2717682Y-9337722D02*
X2708158Y-9356770D01*
X2898634Y-9242484D02*
X2898634Y-9280579D01*
X2974825Y-9242484D02*
X2974825Y-9280579D01*
X3270063Y-9518674D02*
X3260539Y-9509150D01*
X3260539Y-9509150D02*
X3241491Y-9480579D01*
X3241491Y-9480579D02*
X3231968Y-9461531D01*
X3231968Y-9461531D02*
X3222444Y-9432960D01*
X3222444Y-9432960D02*
X3212920Y-9385341D01*
X3212920Y-9385341D02*
X3212920Y-9347246D01*
X3212920Y-9347246D02*
X3222444Y-9299627D01*
X3222444Y-9299627D02*
X3231968Y-9271055D01*
X3231968Y-9271055D02*
X3241491Y-9252008D01*
X3241491Y-9252008D02*
X3260539Y-9223436D01*
X3260539Y-9223436D02*
X3270063Y-9213912D01*
X3431968Y-9309150D02*
X3431968Y-9442484D01*
X3384348Y-9232960D02*
X3336729Y-9375817D01*
X3336729Y-9375817D02*
X3460539Y-9375817D01*
X3689110Y-9442484D02*
X3689110Y-9242484D01*
X3774825Y-9442484D02*
X3774825Y-9337722D01*
X3774825Y-9337722D02*
X3765301Y-9318674D01*
X3765301Y-9318674D02*
X3746253Y-9309150D01*
X3746253Y-9309150D02*
X3717682Y-9309150D01*
X3717682Y-9309150D02*
X3698634Y-9318674D01*
X3698634Y-9318674D02*
X3689110Y-9328198D01*
X3898634Y-9442484D02*
X3879587Y-9432960D01*
X3879587Y-9432960D02*
X3870063Y-9423436D01*
X3870063Y-9423436D02*
X3860539Y-9404389D01*
X3860539Y-9404389D02*
X3860539Y-9347246D01*
X3860539Y-9347246D02*
X3870063Y-9328198D01*
X3870063Y-9328198D02*
X3879587Y-9318674D01*
X3879587Y-9318674D02*
X3898634Y-9309150D01*
X3898634Y-9309150D02*
X3927206Y-9309150D01*
X3927206Y-9309150D02*
X3946253Y-9318674D01*
X3946253Y-9318674D02*
X3955777Y-9328198D01*
X3955777Y-9328198D02*
X3965301Y-9347246D01*
X3965301Y-9347246D02*
X3965301Y-9404389D01*
X3965301Y-9404389D02*
X3955777Y-9423436D01*
X3955777Y-9423436D02*
X3946253Y-9432960D01*
X3946253Y-9432960D02*
X3927206Y-9442484D01*
X3927206Y-9442484D02*
X3898634Y-9442484D01*
X4079587Y-9442484D02*
X4060539Y-9432960D01*
X4060539Y-9432960D02*
X4051015Y-9413912D01*
X4051015Y-9413912D02*
X4051015Y-9242484D01*
X4231968Y-9432960D02*
X4212920Y-9442484D01*
X4212920Y-9442484D02*
X4174825Y-9442484D01*
X4174825Y-9442484D02*
X4155777Y-9432960D01*
X4155777Y-9432960D02*
X4146253Y-9413912D01*
X4146253Y-9413912D02*
X4146253Y-9337722D01*
X4146253Y-9337722D02*
X4155777Y-9318674D01*
X4155777Y-9318674D02*
X4174825Y-9309150D01*
X4174825Y-9309150D02*
X4212920Y-9309150D01*
X4212920Y-9309150D02*
X4231968Y-9318674D01*
X4231968Y-9318674D02*
X4241492Y-9337722D01*
X4241492Y-9337722D02*
X4241492Y-9356770D01*
X4241492Y-9356770D02*
X4146253Y-9375817D01*
X4317682Y-9432960D02*
X4336730Y-9442484D01*
X4336730Y-9442484D02*
X4374825Y-9442484D01*
X4374825Y-9442484D02*
X4393873Y-9432960D01*
X4393873Y-9432960D02*
X4403396Y-9413912D01*
X4403396Y-9413912D02*
X4403396Y-9404389D01*
X4403396Y-9404389D02*
X4393873Y-9385341D01*
X4393873Y-9385341D02*
X4374825Y-9375817D01*
X4374825Y-9375817D02*
X4346253Y-9375817D01*
X4346253Y-9375817D02*
X4327206Y-9366293D01*
X4327206Y-9366293D02*
X4317682Y-9347246D01*
X4317682Y-9347246D02*
X4317682Y-9337722D01*
X4317682Y-9337722D02*
X4327206Y-9318674D01*
X4327206Y-9318674D02*
X4346253Y-9309150D01*
X4346253Y-9309150D02*
X4374825Y-9309150D01*
X4374825Y-9309150D02*
X4393873Y-9318674D01*
X4470063Y-9518674D02*
X4479587Y-9509150D01*
X4479587Y-9509150D02*
X4498634Y-9480579D01*
X4498634Y-9480579D02*
X4508158Y-9461531D01*
X4508158Y-9461531D02*
X4517682Y-9432960D01*
X4517682Y-9432960D02*
X4527206Y-9385341D01*
X4527206Y-9385341D02*
X4527206Y-9347246D01*
X4527206Y-9347246D02*
X4517682Y-9299627D01*
X4517682Y-9299627D02*
X4508158Y-9271055D01*
X4508158Y-9271055D02*
X4498634Y-9252008D01*
X4498634Y-9252008D02*
X4479587Y-9223436D01*
X4479587Y-9223436D02*
X4470063Y-9213912D01*
M02*
