M48
; DRILL file {KiCad 8.0.3} date 2024-12-09T22:45:45-0600
; FORMAT={-:-/ absolute / metric / decimal}
; #@! TF.CreationDate,2024-12-09T22:45:45-06:00
; #@! TF.GenerationSoftware,Kicad,Pcbnew,8.0.3
; #@! TF.FileFunction,Plated,1,4,PTH
FMAT,2
METRIC
; #@! TA.AperFunction,Plated,PTH,ComponentDrill
T1C0.300
; #@! TA.AperFunction,Plated,PTH,ViaDrill
T2C0.400
; #@! TA.AperFunction,Plated,PTH,ComponentDrill
T3C1.000
; #@! TA.AperFunction,Plated,PTH,ComponentDrill
T4C1.200
; #@! TA.AperFunction,Plated,PTH,ComponentDrill
T5C2.200
%
G90
G05
T1
X27.2Y-2.72
X27.2Y-4.02
X27.2Y-5.32
X27.2Y-6.62
X28.5Y-2.72
X28.5Y-4.02
X28.5Y-5.32
X28.5Y-6.62
T2
X0.3Y-22.29
X0.33Y-24.76
X0.33Y-29.85
X0.34Y-27.35
X1.1Y-44.6
X1.1Y-45.7
X4.6Y-44.9
X5.6Y-44.9
X6.6Y-44.9
X9.15Y-58.8
X9.677Y-23.673
X9.677Y-28.753
X9.703Y-26.238
X9.728Y-21.133
X10.6Y-26.98
X11.55Y-27.86
X11.87Y-22.67
X11.872Y-24.232
X11.938Y-35.45
X11.96Y-32.309
X11.99Y-33.87
X12.7Y-54.954
X13.335Y-60.034
X15.723Y-63.997
X15.75Y0.25
X15.76Y-32.31
X15.78Y1.45
X15.85Y-51.348
X16.43Y-33.86
X16.95Y0.25
X16.98Y1.45
X17.6Y-73.7
X17.66Y-69.99
X17.856Y-58.333
X18.0Y-49.4
X18.05Y-35.3
X18.66Y-69.99
X18.72Y-15.68
X18.78Y-18.33
X19.425Y-30.8
X19.95Y-32.05
X20.471Y-32.925
X21.25Y-34.15
X22.86Y-54.954
X22.86Y-60.034
X23.1Y-28.85
X23.68Y-74.315
X24.524Y-74.306
X25.4Y-62.2
X25.5Y-66.9
X25.6Y-23.97
X26.15Y-62.95
X26.5Y-31.12
X26.866Y-55.587
X27.26Y-31.82
X27.31Y-20.68
X27.67Y-10.69
X27.7Y-9.2
X27.8Y-55.944
X27.95Y-7.8
X28.06Y-32.55
X28.09Y-19.99
X28.7Y-69.5
X28.82Y-33.28
X28.92Y-19.36
X29.0Y-73.3
X29.49Y-40.0
X32.2Y-70.7
X32.44Y-7.98
X32.844Y-74.056
X33.7Y-68.8
X36.1Y-10.0
X36.17Y-8.05
X37.15Y-10.0
X37.8Y-70.7
X38.86Y-1.11
X38.86Y-2.417
X38.86Y-3.723
X38.86Y-5.03
X40.0Y-70.9
X42.41Y-30.6
X42.707Y-74.306
X42.73Y-49.99
X43.31Y1.62
X44.24Y-11.81
X44.3Y-40.998
X44.4Y-58.05
X44.62Y-3.94
X44.63Y-4.92
X44.63Y-5.9
X45.15Y-31.4
X45.52Y-3.42
X45.53Y-4.4
X45.53Y-5.38
X45.95Y-10.4
X47.2Y-69.5
X47.21Y-73.38
X49.62Y-25.92
X50.55Y-32.2
X50.759Y-74.056
X50.92Y-38.41
X51.4Y-69.305
X52.13Y-73.0
X53.35Y-30.65
X53.47Y-33.25
X53.47Y-38.41
X54.65Y-22.05
X57.07Y-75.19
X57.45Y-20.75
X57.73Y-70.81
X57.85Y-25.9
X58.05Y-28.4
X59.23Y-70.76
X59.95Y-29.7
X60.63Y-74.04
X61.4Y-8.0
X61.6Y-27.75
X63.35Y-32.45
X63.4Y-6.6
X63.65Y-20.55
X64.05Y-28.9
X65.4Y-13.9
X65.6Y-15.6
T3
X2.628Y-17.85
X2.707Y-21.132
X2.707Y-23.672
X2.707Y-26.212
X2.707Y-28.752
X2.707Y-33.68
X2.707Y-36.22
X2.707Y-38.76
X2.707Y-41.3
X5.116Y-67.83
X5.116Y-70.37
X5.116Y-72.91
X5.168Y-17.85
X5.247Y-21.132
X5.247Y-23.672
X5.247Y-26.212
X5.247Y-28.752
X5.247Y-33.68
X5.247Y-36.22
X5.247Y-38.76
X5.247Y-41.3
X7.656Y-67.83
X7.656Y-70.37
X7.656Y-72.91
X7.708Y-17.85
X7.787Y-21.132
X7.787Y-23.672
X7.787Y-26.212
X7.787Y-28.752
X10.196Y-67.83
X10.196Y-70.37
X10.196Y-72.91
X12.736Y-67.83
X12.736Y-70.37
X12.736Y-72.91
X24.27Y-37.325
X24.27Y-65.705
X26.78Y-37.325
X26.78Y-65.705
X29.32Y-37.325
X29.32Y-65.705
X31.86Y-37.325
X31.86Y-65.705
X34.4Y-17.005
X34.4Y-37.325
X34.4Y-45.385
X34.4Y-65.705
X36.94Y-17.005
X36.94Y-37.325
X36.94Y-45.385
X36.94Y-65.705
X39.375Y-41.275
X39.48Y-17.005
X39.48Y-37.325
X39.48Y-45.385
X39.48Y-65.705
X41.915Y-41.275
X42.02Y-17.005
X42.02Y-37.325
X42.02Y-45.385
X42.02Y-65.705
X44.56Y-17.005
X44.56Y-37.325
X44.56Y-45.385
X44.56Y-65.705
X47.1Y-17.005
X47.1Y-37.325
X47.1Y-45.385
X47.1Y-65.705
X49.64Y-17.005
X49.64Y-37.325
X49.64Y-45.385
X49.64Y-65.705
X52.18Y-17.005
X52.18Y-37.325
X52.18Y-45.385
X52.18Y-65.705
X54.72Y-17.005
X54.72Y-37.325
X54.72Y-45.385
X54.72Y-65.705
X57.26Y-17.005
X57.26Y-37.325
X57.26Y-45.385
X57.26Y-65.705
X59.8Y-17.005
X59.8Y-37.325
X59.8Y-45.385
X59.8Y-65.705
X62.34Y-17.005
X62.34Y-37.325
X62.34Y-45.385
X62.34Y-65.705
T4
X6.45Y-4.25
X6.45Y-9.25
X9.95Y-4.25
X9.95Y-9.25
X51.3Y-4.4
X51.3Y-9.4
X54.8Y-4.4
X54.8Y-9.4
X58.3Y-4.4
X58.3Y-9.4
T5
X0.0Y0.0
X0.0Y-73.5
X64.5Y0.0
X64.5Y-73.5
M30
